<svg width="1007" height="994" viewBox="0 0 1007 994" fill="none" xmlns="http://www.w3.org/2000/svg">
<path d="M329.492 408.133C317.207 411.456 309.453 415.787 300.994 424.245C291.831 433.308 288.205 440.357 286.695 451.736C284.58 467.043 288.709 480.134 298.779 490.103C307.842 499.267 319.02 504.1 347.115 511.452C372.592 517.997 379.54 520.615 385.381 526.254C394.645 535.015 391.02 549.013 378.03 555.155C371.988 557.975 351.747 559.888 344.295 558.277C329.593 555.055 318.214 542.971 318.214 530.383V526.959L299.383 527.161L280.451 527.463L280.754 534.713C280.955 541.46 280.754 542.064 278.941 542.064C277.531 542.064 276.826 542.971 276.323 545.79C275.92 547.905 275.014 551.228 274.409 553.242C273.302 556.364 273.302 557.069 274.913 559.183L276.625 561.499L278.74 555.055C279.847 551.53 281.056 547.704 281.257 546.596L281.66 544.582L282.365 546.596C288.105 561.701 299.081 574.188 312.273 580.632C326.069 587.379 333.218 588.789 354.466 588.688C371.182 588.688 374.102 588.386 382.863 586.07C388.301 584.66 395.954 581.74 399.982 579.726C409.045 574.993 419.417 564.923 422.841 557.371C424.251 554.551 425.56 552.134 425.963 552.134C426.366 552.134 427.473 553.846 428.38 555.86C429.286 557.975 430.897 560.795 432.005 562.204L433.818 564.621L436.637 558.881C438.248 555.76 439.759 553.141 440.061 553.141C440.363 553.141 441.571 555.055 442.78 557.471C448.52 569.253 462.416 580.834 476.414 585.466C483.161 587.681 485.477 587.883 499.977 587.782C514.579 587.681 516.895 587.48 524.246 585.063C528.677 583.553 535.021 580.632 538.344 578.518C544.285 574.59 553.55 565.527 555.765 561.399C557.88 557.371 558.887 559.083 558.887 566.937V574.792L563.721 569.757C566.339 566.937 569.259 563.614 570.165 562.204C571.777 559.788 571.877 560.19 571.877 572.476L571.978 585.365H589.6H607.223V576.302C607.223 566.837 608.129 565.125 610.244 570.26C610.949 571.972 613.869 575.396 616.689 578.014L621.824 582.646L622.328 575.698L622.831 568.75L624.543 571.872C625.45 573.583 628.068 576.604 630.283 578.618C638.843 586.372 647.805 588.89 664.219 588.185C673.181 587.782 676.505 587.178 682.244 584.862C686.877 582.949 689.293 582.445 689.596 583.251C690.099 584.66 698.256 584.761 700.975 583.351C702.485 582.546 702.888 582.646 702.888 583.855C702.888 585.164 705.305 585.365 720.007 585.365H737.126V533.505C737.126 492.822 737.428 481.443 738.435 481.141C739.039 480.839 741.96 481.04 744.678 481.443L749.713 482.148L750.217 523.938L750.72 565.729L751.023 524.14L751.224 482.651H757.165H763.207L763.509 524.643L763.811 566.736L766.732 572.073C772.874 583.049 781.333 586.372 802.883 586.372C810.738 586.372 818.894 586.07 820.908 585.768C824.634 585.164 824.634 585.063 824.936 579.827L825.238 574.49L831.784 578.518L838.329 582.445L838.632 578.82C838.833 576.907 839.135 575.295 839.336 575.295C839.437 575.295 841.955 576.806 844.774 578.719C855.952 586.272 866.928 588.89 884.651 588.084C904.791 587.279 917.681 582.143 927.952 571.066C932.887 565.729 941.547 550.624 941.547 547.301C941.547 546.394 937.217 546.092 926.039 546.092C911.538 546.092 910.431 546.193 909.826 548.006C908.92 550.926 901.67 557.169 896.433 559.385C893.211 560.795 890.593 561.298 887.37 560.895C884.954 560.593 881.429 560.795 879.717 561.298C875.286 562.607 867.432 560.09 862.397 555.76C857.362 551.53 853.938 543.877 853.132 535.821L852.629 529.98H898.749H944.87L944.266 520.112C942.252 487.485 925.334 463.72 899.656 457.074C891.096 454.858 870.352 454.858 862.9 457.074C856.455 458.987 847.795 463.317 842.861 467.043L839.336 469.661L838.833 465.633L838.329 461.706L831.583 466.137L824.735 470.567V464.525V458.584L811.946 458.282L799.056 457.98L798.754 439.048L798.553 420.217H780.93H763.308V438.645V457.174L753.037 457.879C747.297 458.282 733.501 458.584 722.424 458.483L702.082 458.383L701.579 497.454C701.075 540.252 700.471 545.186 695.033 552.134C693.422 554.048 689.998 556.767 687.38 558.076C683.05 560.19 682.144 560.392 679.123 559.284C676.706 558.378 675.195 558.378 673.786 559.083C668.65 561.902 661.097 559.284 657.573 553.544C653.041 546.294 652.538 540.957 652.538 498.562V458.383L630.183 458.483L607.726 458.584L607.424 434.416L607.223 410.147H589.6H571.978L571.877 447.104C571.877 482.148 571.777 484.061 570.165 481.644C569.259 480.235 566.339 476.811 563.721 474.092L558.887 469.057V476.911C558.887 481.242 558.484 484.665 557.981 484.464C557.477 484.263 555.262 481.745 553.046 478.724C545.091 468.151 533.913 461.001 519.815 457.376C510.148 454.959 488.699 454.657 479.938 456.973C459.395 462.31 441.571 480.738 436.939 501.281L435.731 506.819L430.998 501.583C428.48 498.763 425.862 496.649 425.258 497.051C424.654 497.454 423.647 499.77 423.043 502.288C422.438 504.805 421.734 506.819 421.633 506.819C421.431 506.819 418.41 503.899 414.785 500.375C405.219 491.11 396.256 487.082 370.578 480.637C346.007 474.495 338.455 472.179 332.01 468.755C326.169 465.633 324.256 462.31 324.256 455.462C324.256 447.205 327.881 442.271 336.642 438.343C340.972 436.43 342.785 436.229 353.056 436.732C366.55 437.437 372.693 439.552 378.03 445.493C381.151 448.816 384.676 457.275 384.676 461.202C384.676 462.31 388.301 462.511 403.608 462.31L422.438 462.008L422.136 456.973C421.331 443.278 416.296 432.805 406.326 423.339C398.774 416.391 392.732 413.068 381.151 409.543C373.196 407.227 369.974 406.824 354.466 406.522C339.26 406.119 335.836 406.421 329.492 408.133ZM505.012 482.953C511.054 483.155 512.766 483.558 516.593 486.176C526.059 492.52 530.691 504.302 530.691 521.824C530.691 532.699 529.382 539.748 525.958 546.596C520.621 557.471 515.385 560.392 500.582 560.795C488.397 561.197 484.872 559.888 478.931 553.041C472.285 545.186 470.774 539.748 470.774 521.924C470.774 507.826 471.077 505.712 473.191 500.274C477.421 489.7 488.397 480.839 495.446 482.249C496.856 482.551 501.186 482.953 505.012 482.953ZM825.037 488.19C815.168 506.719 814.665 536.324 823.728 554.148C826.548 559.586 826.95 559.284 819.499 557.673C814.464 556.666 814.161 555.256 813.658 518.903L813.154 485.169L810.335 490.808C808.824 493.93 806.609 500.274 805.501 504.906C801.574 520.112 803.89 541.964 810.838 555.457L812.752 559.385L808.422 558.68C803.084 557.774 800.668 555.659 799.56 550.523C798.452 545.992 798.251 483.356 799.258 482.349C799.56 481.946 806.307 481.745 814.061 481.846L828.259 482.148L825.037 488.19ZM886.263 483.054C895.326 483.155 899.958 486.277 904.187 494.937C905.899 498.461 907.611 502.791 907.913 504.503L908.618 507.826H880.724H852.931V505.41C852.931 493.829 866.626 480.436 876.595 482.349C878.307 482.651 882.637 482.953 886.263 483.054Z" fill="white"/>
<path d="M14.8108 456.673C14.9115 482.352 15.1129 521.826 15.1129 544.383V585.469L17.429 585.167L19.6444 584.865L19.9465 543.779L20.1479 502.794H48.1425C87.2141 502.794 106.649 504.204 113.799 507.426C123.265 511.756 128.602 518.403 130.918 528.674C131.522 531.292 132.428 542.973 132.932 554.655C133.335 566.336 134.342 577.916 134.946 580.534C136.054 584.663 136.557 585.368 138.672 585.368C140.585 585.368 141.089 584.965 140.585 583.656C139.276 580.333 137.967 567.343 137.061 548.008C135.449 513.972 131.723 508.433 105.844 500.881C103.729 500.277 104.232 499.874 109.872 497.86C123.164 493.026 133.033 484.265 137.061 473.692C139.779 466.743 140.786 451.437 138.974 443.079C136.356 430.29 128.904 420.421 118.33 415.588C107.858 410.754 100.809 410.15 56.0978 410.15H14.6094L14.8108 456.673ZM103.326 416.595C114.302 418.307 121.251 421.529 126.185 427.37C131.22 433.21 133.737 439.152 135.047 447.812C137.967 467.247 129.005 484.769 112.288 492.724C103.225 497.054 95.2701 497.759 54.1845 497.759H20.1479V456.472V415.185H57.2055C83.4882 415.185 96.7806 415.588 103.326 416.595Z" fill="white"/>
<path d="M196.67 458.384C188.815 461.304 177.134 470.367 171.696 478.121C165.956 486.076 161.727 495.945 160.116 504.806C159.411 508.431 158.505 513.366 158.102 515.883C156.994 521.925 159.512 542.065 162.633 551.934C167.568 567.744 179.752 581.338 192.743 585.769C199.087 587.984 221.744 587.984 230.102 585.87C247.221 581.338 260.816 567.744 265.347 550.625C267.361 542.77 267.261 542.065 264.34 542.065C262.326 542.065 261.823 542.569 261.823 544.381C261.823 548.309 257.996 558.379 254.27 563.816C246.919 574.994 235.439 581.338 221.643 582.043C216.911 582.245 211.473 582.547 209.66 582.849C204.524 583.453 195.562 581.54 189.218 578.317C174.516 570.865 165.151 553.646 163.439 531.19L162.835 522.932H216.004H269.174L268.469 514.272C266.858 494.837 260.916 480.739 249.839 470.367C238.762 459.894 229.196 456.47 211.674 456.47C204.726 456.571 200.396 457.074 196.67 458.384ZM236.346 466.137C245.207 470.367 252.659 478.221 257.392 488.191C261.118 496.045 264.139 508.734 263.635 514.574C263.333 518.401 263.333 518.401 259.104 518.401C256.687 518.3 234.13 518.199 208.955 518.099L163.137 517.897V514.574C163.137 509.237 166.863 495.844 170.286 488.896C173.912 481.444 182.773 471.575 189.218 467.749C198.382 462.412 202.712 461.505 216.508 462.109C228.189 462.613 229.599 462.915 236.346 466.137Z" fill="white"/>
<path d="M144 518.805C144 521.523 144.504 525.048 145.007 526.558C145.611 528.069 146.518 534.413 146.92 540.556C147.525 548.209 148.431 553.244 149.841 556.466C151.049 559.085 152.157 561.199 152.358 561.199C152.962 561.199 151.15 547.705 150.042 544.08C149.438 542.167 148.733 535.924 148.532 530.284C148.229 523.537 147.525 518.905 146.518 516.891C145.712 515.28 144.705 513.87 144.504 513.87C144.201 513.87 144 516.086 144 518.805Z" fill="white"/>
</svg>
