<svg width="994" height="994" viewBox="0 0 994 994" fill="none" xmlns="http://www.w3.org/2000/svg">
<g clip-path="url(#clip0_10200_9790)">
<path d="M655.217 372.441C654.754 371.848 654.218 371.307 653.654 370.805C610.114 332.415 560.307 321.449 504.503 336.816C502.202 337.442 499.968 338.305 497.452 339.179C496.972 339.343 496.436 339.095 496.267 338.615C495.675 336.991 495.212 335.834 494.907 334.633C492.792 326.43 493.441 325.646 501.931 325.448C506.45 325.336 510.957 325.076 515.464 324.913C554.683 323.463 590.629 312.569 621.2 287.245C627.213 282.259 632.713 275.827 636.341 268.962C643.189 256.009 636.279 242.363 621.826 239.904C614.87 238.713 607.209 239.035 600.31 240.603C573.626 246.662 550.531 260.274 529.128 276.775C519.176 284.453 504.763 297.524 497.254 309.63C496.82 310.324 495.776 310.155 495.573 309.365C493.328 300.542 490.332 290.867 488.702 283.449C488.369 281.943 486.344 280.809 484.719 279.585C484.274 279.252 483.659 279.37 483.371 279.85C482.271 281.677 480.782 283.545 480.923 285.271C481.188 288.396 483.123 291.352 484.11 294.444C490.124 313.427 490.834 332.348 483.794 351.455C483.636 351.872 483.202 352.121 482.762 352.053C481.803 351.895 481.013 351.81 480.302 351.534C462.092 344.482 443.301 343.828 424.932 349.328C380.524 362.613 352.684 394.414 332.94 434.512C329.763 440.96 331.704 444.029 338.761 446.144C350.992 449.806 362.133 445.75 372.869 440.701C380.693 437.034 388.083 432.425 395.716 428.126C396.292 427.805 397.008 428.166 397.093 428.82C400.483 453.128 413.176 462.549 438.364 459.994C451.029 458.708 462.893 453.664 472.889 445.84C476.889 442.709 481.6 439.087 483.41 434.145C483.704 433.35 484.804 433.333 485.148 434.117C485.87 435.787 486.897 437.333 488.177 438.653C495.917 446.573 503.155 455.244 512.113 461.37C521.867 468.05 534.571 469.443 544.201 461.765C562.062 447.51 560.223 424.109 550.965 405.42C542.695 388.716 523.639 363.375 502.156 367.2C495.652 368.356 491.844 364.65 491.303 359.855C490.738 354.947 492.826 349.582 499.375 348.019C515.368 344.206 530.656 345.379 543.361 356.391C547.761 360.199 552.979 362.907 557.447 366.63C562.823 371.121 569.576 373.394 576.221 375.267C583.611 377.354 590.996 379.464 598.471 381.264C614.266 385.088 630.158 388.8 646.208 391.271C651.166 392.027 659.025 390.183 661.569 386.662C665.58 381.128 658.613 376.813 655.217 372.441ZM496.651 312.112C520.017 284.718 554.982 259.885 588.66 248.326C597.263 245.37 606.628 244.106 615.75 243.429C623.095 242.882 629.453 246.368 632.742 253.629C635.827 260.455 633.204 266.277 629.182 271.794C618.943 285.858 604.101 293.761 589.253 301.721C562.394 316.123 533.302 320.095 503.369 320.123C503.053 320.123 502.732 319.79 502.032 319.243C501.767 319.051 501.767 318.645 502.021 318.442C523.881 301.84 547.614 289 571.94 277.272C573.023 276.753 572.301 275.117 571.189 275.574C545.645 286.004 521.551 299.549 498.704 316.975C498.157 317.393 497.373 317.105 497.237 316.428C497.006 315.3 496.746 314.138 496.459 312.936C496.391 312.648 496.459 312.344 496.651 312.112ZM437.806 417.972C430.957 423.517 423.618 427.393 414.406 427.765C407.585 428.041 404.5 422.27 407.377 414.829C412.155 402.469 421.384 394.572 433.959 388.547C434.771 388.169 435.606 389.02 435.194 389.81C429.919 400.297 430.123 406.035 436.531 408.692C440.311 410.26 440.988 415.394 437.806 417.972ZM448.97 375.887C428.154 381.478 413.385 394.385 402.751 412.804C400.359 416.945 396.822 421.148 392.754 423.455C387.322 426.552 381.805 429.536 376.208 432.318C371.137 434.839 366.071 437.795 360.717 439.775C352.34 442.872 345.13 441.214 336.753 439.962C336.133 439.871 335.743 439.251 335.941 438.647C337.289 434.405 338.288 429.971 340.318 426.084C355.967 396.236 378.002 372.757 408.832 357.993C427.81 348.911 447.374 347.912 468.608 351.145C469.668 351.303 469.781 352.809 468.749 353.119C455.068 357.22 442.37 361.028 429.705 364.825C429.18 364.983 428.876 365.536 429.022 366.06C429.034 366.072 429.034 366.077 429.034 366.089C429.197 366.664 429.818 366.957 430.371 366.743C445.585 360.774 461.127 356.431 477.408 355.759C477.831 355.742 478.22 356.019 478.339 356.425C478.717 357.627 478.785 357.83 479.162 359.048C479.292 359.454 479.123 359.889 478.773 360.109C472.41 364.165 466.08 368.277 459.536 372.034C456.332 373.896 452.581 374.917 448.97 375.887ZM484.381 364.565C483.269 368.114 482.152 371.662 480.917 375.594C480.776 376.068 480.279 376.344 479.806 376.232C476.173 375.346 473.358 374.663 470.04 373.857C469.256 373.665 469.07 372.638 469.736 372.175C474.491 368.943 478.615 366.134 482.717 363.336C483.049 363.116 483.484 363.121 483.805 363.364C483.89 363.426 483.963 363.482 484.048 363.55C484.364 363.776 484.494 364.193 484.381 364.565ZM514.438 450.15C514.624 448.175 516.209 446.517 518.071 445.8C519.927 445.078 521.997 445.146 523.966 445.467C525.923 445.789 527.847 446.353 529.822 446.584C531.796 446.827 533.895 446.714 535.643 445.761C536.935 445.05 537.951 443.95 538.746 442.731C539.293 441.902 539.688 441.011 540.139 440.136C540.602 439.256 540.89 438.264 541.273 437.344C541.595 436.577 541.883 435.821 542.633 435.37C543.299 434.963 544.156 434.845 544.895 435.104C546.21 435.55 547.067 436.887 547.287 438.247C547.507 439.612 547.185 441.011 546.74 442.32C545.927 444.74 544.698 447.002 543.208 449.072C540.269 453.174 536.151 456.592 531.283 457.878C528.095 458.719 524.66 458.578 521.534 457.546C520.547 457.224 519.577 456.795 518.669 456.288C517.512 455.65 516.423 454.866 515.622 453.822C514.821 452.784 514.314 451.464 514.438 450.15ZM650.833 383.058C650.585 383.622 650.01 383.955 649.412 383.915C644.222 383.537 638.97 383.481 633.893 382.527C612.743 378.545 591.56 374.629 570.597 369.795C564.617 368.418 559.083 364.39 553.791 360.91C546.87 356.346 540.303 351.286 533.291 346.13C532.569 345.605 532.941 344.448 533.838 344.448C534.402 344.448 534.966 344.465 535.519 344.533C567.562 348.459 598.019 358.112 627.935 369.8C632.11 371.436 636.409 372.745 640.645 374.218C626.925 368.232 613.629 360.848 599.402 356.572C574.038 348.95 548.59 340.697 521.585 340.985C515.938 341.047 510.297 341.56 504.154 342.011C503.121 342.096 502.76 340.697 503.68 340.246C504.864 339.653 506.083 339.134 507.318 338.666C510.156 337.583 513.084 336.782 516.051 336.161C519.329 335.479 522.646 335.027 525.985 334.728C529.607 334.413 533.24 334.294 536.879 334.322C540.749 334.35 544.63 334.537 548.494 334.869C552.533 335.214 556.567 335.699 560.578 336.319C564.707 336.945 568.82 337.713 572.904 338.61C577.045 339.512 581.152 340.539 585.231 341.684C589.298 342.829 593.326 344.104 597.314 345.498C601.224 346.863 605.094 348.352 608.901 349.977C612.585 351.545 616.218 353.238 619.778 355.077C623.151 356.825 626.457 358.698 629.673 360.729C632.674 362.63 635.585 364.673 638.355 366.89C640.916 368.92 643.353 371.109 645.598 373.484C646.501 374.443 647.353 375.442 648.205 376.452C648.058 376.249 647.911 376.045 647.759 375.842C648.148 376.367 648.543 376.796 648.831 377.405C649.124 378.003 649.327 378.652 649.558 379.278C649.778 379.915 650.021 380.553 650.354 381.134C650.709 381.766 651.177 382.29 650.833 383.058Z" fill="white"/>
<path d="M5.92732 563.579C5.6114 562.795 4.99086 555.467 5.14317 548.449C5.45909 542.21 6.54786 536.123 7.48432 534.566C24.3293 527.7 42.1107 521.777 59.4239 521.309C73.6175 520.998 100.132 525.207 102.163 545.019C102.783 559.06 102.473 576.526 96.2335 588.068C89.0578 599.3 80.0147 606.475 70.1819 611.152C55.0519 618.328 36.9602 621.137 21.0517 621.29C18.2423 621.29 15.4386 621.29 12.6292 621.132L10.604 652.638H0.15625L5.92732 563.579ZM16.375 559.365L14.3498 591.966C16.6853 591.966 18.8741 591.966 21.0573 591.808C37.2761 591.498 51.6276 590.093 65.6689 584.632C76.7428 580.418 87.1961 574.027 95.6186 562.642C84.3868 551.253 69.8829 550.316 56.3156 550.632C42.8892 551.253 29.6378 554.53 16.375 559.365Z" fill="white"/>
<path d="M113.844 590.872C114.154 577.615 116.179 573.869 116.647 573.559C119.925 573.559 128.348 572.312 131.778 571.534C138.643 569.661 143.478 568.098 148.938 564.979C150.185 564.352 153.773 561.859 154.709 560.612C156.582 558.429 157.361 561.08 157.203 564.352C157.203 565.909 157.045 568.566 156.735 571.838L153.299 624.872C156.735 627.056 160.785 627.992 164.373 628.46C174.979 629.865 187.926 625.657 198.063 617.234C198.999 618.171 198.847 626.125 198.847 628.308C198.847 633.143 198.221 640.944 197.132 645.931C188.552 654.196 180.129 658.568 166.252 658.568C154.241 658.568 143.009 653.423 142.541 636.73C142.231 631.58 142.699 620.974 143.636 614.114L144.882 594.302C139.579 597.111 133.656 598.826 130.068 599.763C124.449 600.857 120.241 601.478 114.938 601.788C113.844 600.547 113.844 593.055 113.844 590.872ZM143.478 526.296C143.794 522.708 144.262 519.588 145.503 519.12C148.938 518.652 155.951 517.247 160.323 515.222C162.195 514.438 163.132 515.69 163.284 517.563C163.284 519.588 162.974 531.757 162.816 536.123C162.664 539.401 162.038 542.362 161.259 542.831C157.671 545.33 147.381 547.665 143.636 547.981C142.699 546.419 143.009 531.289 143.478 526.296Z" fill="white"/>
<path d="M196.032 599.763C195.253 593.214 196.032 581.982 197.589 575.432C197.589 574.964 197.905 574.496 198.215 574.185C206.169 574.496 213.345 574.185 220.831 573.401L223.793 527.543H234.241L231.279 572.154C242.979 570.44 254.831 567.472 266.063 563.264C266.374 563.732 266.689 564.511 266.689 565.289C267.316 571.06 266.374 584.159 265.132 590.246C264.974 590.714 264.664 591.183 264.348 591.493C256.084 594.613 243.758 598.358 229.564 600.226L227.849 624.715C231.437 626.898 235.493 627.987 239.233 628.455C249.997 629.86 262.944 625.651 273.081 617.229C273.86 618.165 273.86 626.119 273.702 628.303C273.702 633.137 273.081 640.939 271.987 645.926C263.406 654.191 255.142 658.563 241.1 658.563C229.248 658.563 218.016 653.418 217.548 636.725C217.238 632.201 217.396 623.31 218.174 616.76L219.111 601.32C211.314 601.946 206.011 602.104 196.653 601.788C196.184 601.326 196.032 600.547 196.032 599.763Z" fill="white"/>
<path d="M286.949 636.261C286.013 629.243 286.791 615.202 287.886 607.874C288.98 599.604 290.537 594.927 294.283 588.378C301.611 576.988 312.691 568.881 322.981 564.509C343.729 555.776 361.973 559.206 368.997 564.977L363.536 652.328H353.088L353.556 646.246C353.246 646.399 352.93 646.557 352.772 646.715C346.849 650.929 340.136 653.89 333.586 655.915C327.347 657.788 320.95 658.725 314.716 658.409C302.858 658.099 289.133 652.486 286.949 636.261ZM328.283 627.839C337.332 626.282 347.154 622.22 355.424 616.607L356.981 590.871C348.874 589.156 338.263 588.998 331.561 590.713C322.823 592.896 313.932 597.11 306.136 603.35C301.611 606.938 295.372 613.487 293.036 617.859C302.39 628.775 315.337 630.332 328.283 627.839Z" fill="white"/>
<path d="M451.794 563.579C451.479 562.795 450.858 555.467 451.01 548.449C451.326 542.21 452.415 536.123 453.352 534.566C470.196 527.7 487.978 521.777 505.291 521.309C519.485 520.998 545.999 525.207 548.03 545.019C548.65 559.06 548.34 576.526 542.101 588.068C534.925 599.3 525.882 606.475 516.049 611.152C500.919 618.328 482.827 621.137 466.919 621.29C464.109 621.29 461.306 621.29 458.496 621.132L456.471 652.638H446.023L451.794 563.579ZM462.248 559.365L460.223 591.966C462.558 591.966 464.747 591.966 466.93 591.808C483.149 591.498 497.5 590.093 511.542 584.632C522.616 580.418 533.069 574.027 541.491 562.642C530.26 551.253 515.756 550.316 502.188 550.632C488.762 551.253 475.505 554.53 462.248 559.365Z" fill="white"/>
<path d="M552.543 636.261C551.607 629.243 552.385 615.202 553.48 607.874C554.574 599.604 556.131 594.927 559.877 588.378C567.205 576.988 578.284 568.881 588.574 564.509C609.323 555.776 627.567 559.206 634.591 564.977L629.13 652.328H618.682L619.15 646.246C618.84 646.399 618.524 646.557 618.366 646.715C612.443 650.929 605.73 653.89 599.18 655.915C592.941 657.788 586.543 658.725 580.31 658.409C568.452 658.099 554.726 652.486 552.543 636.261ZM593.877 627.839C602.926 626.282 612.747 622.22 621.017 616.607L622.574 590.871C614.468 589.156 603.857 588.998 597.155 590.713C588.416 592.896 579.526 597.11 571.729 603.35C567.205 606.938 560.966 613.487 558.63 617.859C567.983 628.775 580.93 630.332 593.877 627.839Z" fill="white"/>
<path d="M650.637 636.731C650.321 632.206 650.479 623.316 651.263 616.766L656.876 527.543H667.324L660.933 624.72C664.52 626.903 668.577 627.992 672.317 628.46C683.08 629.865 696.027 625.657 706.165 617.234C706.949 618.171 706.949 626.125 706.791 628.308C706.791 633.143 706.165 640.945 705.076 645.932C696.495 654.196 688.231 658.568 674.195 658.568C662.332 658.568 651.105 653.418 650.637 636.731Z" fill="white"/>
<path d="M716.606 636.261C715.669 629.243 716.448 615.202 717.542 607.874C718.637 599.604 720.194 594.927 723.939 588.378C731.267 576.988 742.347 568.881 752.637 564.509C773.386 555.776 791.63 559.206 798.653 564.977L793.192 652.328H782.745L783.213 646.246C782.902 646.399 782.587 646.557 782.429 646.715C776.505 650.929 769.792 653.89 763.242 655.915C757.003 657.788 750.606 658.725 744.372 658.409C732.509 658.099 718.789 652.486 716.606 636.261ZM757.934 627.839C766.983 626.282 776.804 622.22 785.074 616.607L786.631 590.871C778.525 589.156 767.913 588.998 761.212 590.713C752.473 592.896 743.582 597.11 735.786 603.35C731.262 606.938 725.023 613.487 722.687 617.859C732.046 628.775 744.993 630.332 757.934 627.839Z" fill="white"/>
<path d="M812.204 644.842C807.837 638.134 808.463 625.972 808.932 617.081C809.4 611.152 809.71 605.229 810.957 599.61C816.412 575.121 841.685 559.681 859.935 558.744C866.953 558.434 877.558 559.991 882.083 571.07C883.177 577.778 882.709 591.656 880.994 598.369C880.678 599.773 880.21 600.552 879.589 599.615C874.602 589.946 868.205 588.852 861.808 588.542C845.121 588.073 824.372 598.527 814.703 616.308C821.252 625.509 833.421 628.318 843.558 628.629C854.632 628.945 866.8 626.756 877.09 620.048C881.925 616.776 889.258 609.443 891.284 603.982C891.752 602.735 892.688 602.577 892.841 604.292C893.151 613.499 891.594 629.56 890.815 631.59C889.569 634.71 888.006 637.209 886.449 639.392C877.09 651.713 864.459 656.548 851.665 658.11C839.502 659.504 820.474 658.257 812.204 644.842Z" fill="white"/>
<path d="M908.739 644.217C904.372 637.509 904.841 625.346 905.303 616.456C905.771 610.532 906.24 604.603 907.486 598.99C912.947 574.501 932.912 560.308 951.161 559.371C959.894 558.903 978.922 561.396 982.358 578.557C983.447 585.265 982.979 599.148 981.264 605.856C981.106 606.64 980.637 606.95 980.327 606.792L913.1 619.739C918.402 628.003 931.039 631.123 939.93 631.439C948.042 631.591 958.648 630.034 968.164 626.136C977.365 622.39 986.098 613.81 992.495 603.678C993.28 602.431 993.9 602.273 994.052 603.988C994.368 613.195 992.958 628.009 992.18 630.034C990.933 633.154 987.965 637.21 986.251 639.083C974.708 651.561 961.141 656.086 948.194 657.491C935.879 658.726 917.009 657.632 908.739 644.217ZM915.604 606.628L975.03 595.397C968.638 587.442 957.875 585.88 953.192 585.727C939.157 585.259 924.495 592.277 915.604 606.628Z" fill="white"/>
<path d="M134.734 741.675C134.734 741.951 134.638 742.171 134.44 742.335C134.243 742.498 133.927 742.577 133.487 742.577H125.911C125.488 742.577 125.172 742.498 124.969 742.335C124.766 742.171 124.664 741.963 124.664 741.697C124.664 741.483 124.726 741.308 124.845 741.173C124.969 741.032 125.206 740.891 125.567 740.744L126.497 740.422C126.971 740.225 127.327 739.96 127.564 739.616C127.801 739.272 128.054 738.657 128.331 737.76L136.94 712.114C137.137 711.528 137.177 711.11 137.075 710.856C136.968 710.602 136.624 710.405 136.037 710.258C135.58 710.129 135.264 709.982 135.084 709.818C134.903 709.655 134.813 709.463 134.813 709.232C134.813 708.955 134.92 708.741 135.129 708.583C135.343 708.425 135.659 708.352 136.082 708.352H146.225C146.665 708.352 146.987 708.431 147.19 708.583C147.393 708.735 147.494 708.944 147.494 709.203C147.494 709.463 147.404 709.677 147.224 709.841C147.043 710.004 146.744 710.134 146.321 710.23C145.847 710.326 145.565 710.478 145.475 710.681C145.385 710.885 145.413 711.223 145.559 711.697L154.631 738.42C154.845 739.091 155.105 739.588 155.415 739.926C155.725 740.264 156.165 740.49 156.735 740.62C157.192 740.767 157.497 740.919 157.654 741.071C157.807 741.229 157.886 741.427 157.886 741.669C157.886 741.946 157.779 742.166 157.57 742.329C157.355 742.493 157.04 742.572 156.616 742.572H146.885C146.462 742.572 146.146 742.493 145.943 742.329C145.74 742.166 145.638 741.946 145.638 741.669C145.638 741.438 145.717 741.252 145.87 741.105C146.028 740.958 146.265 740.84 146.592 740.738L148.329 740.468C148.752 740.372 148.967 740.185 148.978 739.915C148.984 739.644 148.894 739.21 148.696 738.606L139.331 710.614L140.065 710.27L130.994 737.478C130.796 738.064 130.7 738.55 130.7 738.933C130.7 739.317 130.819 739.621 131.056 739.853C131.293 740.084 131.654 740.287 132.144 740.462L133.78 740.755C134.108 740.851 134.345 740.97 134.503 741.099C134.655 741.24 134.734 741.432 134.734 741.675ZM132.359 728.959H146.981L147.15 731.063H132.139L132.359 728.959Z" fill="white"/>
<path d="M178.687 708.352H196.141C196.694 708.352 197.134 708.267 197.45 708.092C197.766 707.923 198.053 707.754 198.307 707.59C198.561 707.427 198.849 707.348 199.176 707.348C199.599 707.348 199.932 707.455 200.169 707.664C200.406 707.872 200.586 708.228 200.722 708.713L202.386 716.413C202.47 716.803 202.442 717.124 202.312 717.367C202.183 717.609 201.957 717.767 201.63 717.829C201.32 717.897 201.049 717.863 200.812 717.733C200.575 717.604 200.377 717.367 200.214 717.023C199.447 715.15 198.781 713.745 198.222 712.808C197.658 711.872 197.072 711.24 196.462 710.913C195.853 710.586 195.08 710.422 194.155 710.422H190.291V739.052C190.291 739.396 190.398 739.672 190.612 739.892C190.827 740.112 191.126 740.27 191.515 740.372L193.106 740.665C193.726 740.846 194.037 741.179 194.037 741.669C194.037 742.273 193.636 742.572 192.841 742.572H182.038C181.631 742.572 181.327 742.493 181.135 742.329C180.937 742.166 180.842 741.946 180.842 741.669C180.842 741.179 181.152 740.846 181.772 740.665L183.363 740.372C183.769 740.276 184.074 740.118 184.277 739.892C184.48 739.672 184.582 739.39 184.582 739.052V710.422H180.717C179.804 710.422 179.042 710.586 178.433 710.913C177.823 711.24 177.237 711.872 176.673 712.808C176.109 713.745 175.437 715.15 174.653 717.023C174.506 717.367 174.315 717.604 174.066 717.733C173.824 717.863 173.547 717.897 173.237 717.829C172.91 717.762 172.684 717.609 172.566 717.367C172.442 717.124 172.413 716.803 172.481 716.413L174.145 708.713C174.275 708.222 174.461 707.872 174.698 707.664C174.935 707.449 175.262 707.348 175.685 707.348C176.03 707.348 176.323 707.427 176.565 707.59C176.808 707.754 177.096 707.917 177.423 708.092C177.722 708.267 178.151 708.352 178.687 708.352Z" fill="white"/>
<path d="M204.531 737.495C204.531 735.554 205.4 733.969 207.138 732.728C208.875 731.487 211.273 730.872 214.336 730.872C215.442 730.872 216.463 730.974 217.393 731.177C218.324 731.38 219.148 731.645 219.864 731.972L219.475 733.32C218.792 733.044 218.093 732.813 217.382 732.621C216.671 732.435 215.893 732.339 215.047 732.339C213.433 732.339 212.17 732.723 211.256 733.49C210.342 734.257 209.885 735.306 209.885 736.643C209.885 737.963 210.257 738.973 210.996 739.661C211.741 740.355 212.689 740.699 213.845 740.699C214.939 740.699 215.989 740.451 216.999 739.955C218.008 739.458 218.883 738.753 219.616 737.839L220.129 738.99C219.17 740.31 217.924 741.331 216.401 742.059C214.877 742.787 213.258 743.148 211.549 743.148C209.479 743.148 207.792 742.64 206.489 741.619C205.186 740.592 204.531 739.221 204.531 737.495ZM219.131 739.549V739.058L218.809 738.911V724.949C218.809 723.55 218.454 722.472 217.743 721.722C217.032 720.972 216.028 720.599 214.725 720.599C213.484 720.599 212.559 720.853 211.938 721.355C211.318 721.863 211.007 722.472 211.007 723.189V725.118C211.007 725.902 210.748 726.506 210.235 726.929C209.721 727.352 209.01 727.566 208.097 727.566C207.295 727.566 206.686 727.358 206.263 726.94C205.84 726.523 205.626 725.976 205.626 725.287C205.626 724.277 206.021 723.302 206.81 722.354C207.6 721.412 208.745 720.628 210.246 720.007C211.746 719.386 213.563 719.076 215.695 719.076C218.482 719.076 220.553 719.674 221.906 720.87C223.26 722.066 223.937 723.668 223.937 725.677V738.9C223.937 739.424 224.039 739.808 224.242 740.051C224.445 740.293 224.727 740.417 225.083 740.417C225.489 740.417 225.776 740.327 225.951 740.135C226.121 739.949 226.273 739.763 226.403 739.582C226.487 739.486 226.572 739.402 226.662 739.329C226.752 739.255 226.86 739.221 226.989 739.221C227.17 739.221 227.3 739.283 227.379 739.402C227.458 739.526 227.503 739.69 227.503 739.904C227.503 740.378 227.339 740.863 227.012 741.359C226.685 741.856 226.211 742.273 225.596 742.617C224.975 742.962 224.203 743.131 223.272 743.131C221.985 743.131 220.97 742.826 220.231 742.217C219.498 741.613 219.131 740.722 219.131 739.549Z" fill="white"/>
<path d="M239.952 720.92C238.728 720.92 237.764 721.236 237.058 721.863C236.348 722.489 235.992 723.307 235.992 724.317C235.992 724.954 236.139 725.518 236.432 726.015C236.726 726.511 237.256 726.968 238.023 727.385C238.79 727.803 239.879 728.186 241.301 728.548C243.569 729.067 245.34 729.71 246.62 730.466C247.901 731.221 248.798 732.085 249.323 733.044C249.842 734.003 250.107 735.074 250.107 736.248C250.107 738.318 249.362 739.982 247.867 741.246C246.378 742.51 244.246 743.142 241.476 743.142C240.466 743.142 239.631 743.051 238.971 742.876C238.311 742.696 237.764 742.515 237.318 742.341C236.878 742.16 236.489 742.07 236.145 742.07C235.817 742.07 235.564 742.166 235.389 742.352C235.208 742.538 235.039 742.724 234.875 742.905C234.712 743.085 234.486 743.175 234.193 743.175C233.961 743.175 233.787 743.108 233.657 742.967C233.527 742.826 233.403 742.577 233.29 742.222L231.479 737.111C231.333 736.654 231.287 736.276 231.344 735.971C231.4 735.667 231.586 735.464 231.897 735.351C232.207 735.238 232.478 735.238 232.715 735.362C232.952 735.486 233.16 735.701 233.335 736.011C234.052 737.348 234.83 738.403 235.671 739.176C236.511 739.949 237.397 740.501 238.333 740.829C239.27 741.156 240.229 741.319 241.205 741.319C242.751 741.319 243.913 740.992 244.686 740.343C245.458 739.689 245.848 738.826 245.848 737.748C245.848 737.111 245.684 736.53 245.357 736C245.03 735.469 244.437 734.979 243.574 734.522C242.711 734.065 241.481 733.642 239.885 733.252C237.893 732.778 236.314 732.203 235.129 731.515C233.944 730.832 233.098 730.009 232.585 729.044C232.072 728.085 231.812 726.968 231.812 725.693C231.812 724.39 232.139 723.239 232.788 722.246C233.437 721.253 234.362 720.475 235.552 719.911C236.743 719.347 238.136 719.064 239.732 719.064C240.759 719.064 241.594 719.16 242.237 719.358C242.88 719.555 243.411 719.753 243.828 719.956C244.246 720.159 244.612 720.26 244.939 720.26C245.295 720.26 245.577 720.159 245.769 719.956C245.966 719.753 246.141 719.55 246.305 719.358C246.468 719.16 246.688 719.064 246.965 719.064C247.162 719.064 247.326 719.132 247.467 719.273C247.608 719.414 247.709 719.645 247.771 719.967L249.165 724.836C249.278 725.326 249.317 725.727 249.289 726.043C249.255 726.359 249.074 726.584 248.753 726.714C248.46 726.827 248.2 726.804 247.969 726.641C247.737 726.477 247.506 726.201 247.258 725.806C246.327 724.029 245.221 722.771 243.935 722.032C242.649 721.287 241.323 720.92 239.952 720.92Z" fill="white"/>
<path d="M256.065 721.627L254.795 721.283C254.372 721.17 254.085 721.035 253.927 720.877C253.769 720.724 253.695 720.55 253.695 720.352C253.695 720.093 253.786 719.895 253.966 719.765C254.147 719.636 254.389 719.568 254.699 719.568H256.262C256.702 719.568 257.058 719.5 257.328 719.359C257.593 719.218 257.83 718.964 258.022 718.592L259.952 715.049C260.194 714.66 260.442 714.378 260.685 714.203C260.927 714.034 261.193 713.949 261.469 713.949C261.745 713.949 261.965 714.039 262.129 714.214C262.293 714.395 262.372 714.649 262.372 714.97V736.509C262.372 737.631 262.603 738.489 263.071 739.076C263.534 739.662 264.177 739.956 264.989 739.956C265.593 739.956 266.061 739.854 266.394 739.651C266.727 739.448 266.986 739.211 267.178 738.94C267.364 738.675 267.545 738.438 267.714 738.246C267.883 738.055 268.103 737.953 268.363 737.953C268.571 737.953 268.735 738.021 268.837 738.15C268.944 738.28 268.995 738.5 268.995 738.811C268.995 739.51 268.741 740.176 268.239 740.813C267.731 741.451 267.037 741.97 266.146 742.376C265.26 742.782 264.233 742.985 263.077 742.985C261.283 742.985 259.856 742.517 258.784 741.58C257.718 740.644 257.182 739.228 257.182 737.338V723.049C257.182 722.642 257.097 722.332 256.939 722.118C256.781 721.903 256.488 721.746 256.065 721.627ZM260.047 721.531V719.574H267.748C268.092 719.574 268.351 719.636 268.532 719.754C268.712 719.878 268.803 720.07 268.803 720.33C268.803 720.674 268.628 720.956 268.278 721.187C267.928 721.418 267.376 721.531 266.625 721.531H260.047Z" fill="white"/>
<path d="M294.571 728.256C294.571 729.023 294.345 729.604 293.9 730.005C293.454 730.405 292.794 730.602 291.931 730.602H276.31V729.012H288.072C288.885 729.012 289.296 728.656 289.296 727.934C289.296 725.768 288.823 724.07 287.88 722.851C286.938 721.627 285.675 721.018 284.09 721.018C282.848 721.018 281.76 721.373 280.812 722.084C279.864 722.795 279.125 723.793 278.589 725.091C278.053 726.388 277.783 727.906 277.783 729.649C277.783 732.893 278.561 735.352 280.118 737.022C281.675 738.692 283.717 739.527 286.245 739.527C287.858 739.527 289.257 739.172 290.447 738.45C291.638 737.733 292.478 736.78 292.963 735.589C293.178 735.313 293.353 735.121 293.488 735.014C293.629 734.907 293.787 734.856 293.967 734.856C294.199 734.856 294.357 734.952 294.458 735.149C294.554 735.347 294.605 735.572 294.605 735.832C294.509 737.169 294.018 738.393 293.138 739.499C292.258 740.61 291.09 741.49 289.629 742.15C288.174 742.81 286.51 743.137 284.654 743.137C282.358 743.137 280.332 742.658 278.578 741.693C276.824 740.734 275.458 739.38 274.482 737.637C273.506 735.894 273.016 733.846 273.016 731.499C273.016 729.119 273.49 726.992 274.432 725.119C275.379 723.246 276.728 721.768 278.488 720.679C280.248 719.596 282.341 719.055 284.772 719.055C286.775 719.055 288.512 719.444 289.979 720.228C291.446 721.012 292.58 722.09 293.375 723.466C294.171 724.854 294.571 726.445 294.571 728.256Z" fill="white"/>
<path d="M323.002 719.088C325.4 719.088 327.515 719.596 329.343 720.617C331.176 721.638 332.609 723.054 333.647 724.87C334.68 726.687 335.199 728.78 335.199 731.143C335.199 733.439 334.674 735.498 333.625 737.304C332.575 739.115 331.12 740.542 329.27 741.585C327.419 742.629 325.27 743.148 322.827 743.148C320.43 743.148 318.314 742.635 316.481 741.608C314.647 740.581 313.214 739.16 312.176 737.343C311.144 735.527 310.625 733.445 310.625 731.098C310.625 728.768 311.15 726.704 312.205 724.898C313.254 723.099 314.704 721.677 316.554 720.645C318.41 719.601 320.559 719.088 323.002 719.088ZM324.74 741.016C326.094 740.818 327.199 740.26 328.051 739.34C328.909 738.421 329.478 737.18 329.76 735.623C330.042 734.066 330.009 732.238 329.653 730.134C329.298 728.018 328.705 726.258 327.893 724.865C327.075 723.471 326.093 722.461 324.937 721.835C323.781 721.209 322.5 721 321.101 721.215C319.747 721.412 318.647 721.971 317.789 722.89C316.932 723.81 316.362 725.045 316.08 726.596C315.798 728.142 315.832 729.981 316.187 732.097C316.548 734.201 317.135 735.95 317.947 737.354C318.76 738.759 319.747 739.769 320.903 740.384C322.06 740.999 323.335 741.213 324.74 741.016Z" fill="white"/>
<path d="M348.996 739.155C348.996 739.578 349.092 739.916 349.289 740.159C349.487 740.401 349.78 740.548 350.169 740.599L352.64 740.87C352.984 740.903 353.232 740.994 353.396 741.152C353.56 741.31 353.639 741.507 353.639 741.75C353.639 742.302 353.272 742.579 352.538 742.579H341.465C341.12 742.579 340.855 742.506 340.669 742.359C340.483 742.212 340.387 742.015 340.387 741.772C340.387 741.524 340.466 741.338 340.618 741.197C340.776 741.056 341.013 740.949 341.34 740.864L342.536 740.621C342.976 740.509 343.298 740.339 343.501 740.108C343.704 739.882 343.806 739.572 343.806 739.177V723.63C343.806 723.286 343.721 723.009 343.563 722.789C343.4 722.569 343.089 722.394 342.632 722.265L341.312 721.875C340.793 721.712 340.443 721.542 340.263 721.373C340.082 721.204 339.992 721.018 339.992 720.82C339.992 720.595 340.077 720.409 340.252 720.268C340.421 720.132 340.68 720.059 341.019 720.059H345.03L343.834 720.939V720.11C343.834 719.591 343.71 719.088 343.467 718.603C343.225 718.124 342.937 717.633 342.61 717.137C342.283 716.64 342 716.076 341.752 715.45C341.51 714.824 341.386 714.096 341.386 713.261C341.386 711.388 342.04 709.871 343.354 708.714C344.669 707.558 346.457 706.977 348.719 706.977C350.186 706.977 351.427 707.219 352.448 707.699C353.469 708.178 354.248 708.816 354.784 709.605C355.32 710.395 355.59 711.258 355.59 712.183C355.59 713.08 355.37 713.763 354.93 714.226C354.49 714.688 353.915 714.92 353.193 714.92C352.426 714.92 351.816 714.677 351.359 714.186C350.903 713.695 350.677 713.047 350.677 712.229V711.055C350.677 710.226 350.451 709.588 350.006 709.148C349.56 708.708 348.928 708.488 348.11 708.488C347.117 708.488 346.356 708.799 345.825 709.419C345.295 710.04 345.03 710.909 345.03 712.037C345.03 712.753 345.154 713.396 345.397 713.966C345.639 714.536 345.944 715.061 346.305 715.546C346.66 716.025 347.021 716.493 347.382 716.95C347.738 717.407 348.042 717.881 348.285 718.366C348.528 718.857 348.652 719.376 348.652 719.929V720.978L347.969 720.047H353.763C354.09 720.047 354.344 720.115 354.519 720.245C354.699 720.375 354.789 720.561 354.789 720.809C354.789 721.153 354.62 721.435 354.276 721.667C353.932 721.898 353.39 722.011 352.64 722.011H348.996V739.155Z" fill="white"/>
<path d="M398.894 720.627C398.894 722.714 398.369 724.52 397.314 726.054C396.265 727.588 394.782 728.779 392.864 729.625C390.945 730.471 388.712 730.894 386.15 730.894C384.424 730.894 382.828 730.714 381.361 730.358C379.894 729.997 378.63 729.495 377.57 728.841L377.891 727.03C378.461 727.402 379.116 727.724 379.86 727.995C380.599 728.265 381.389 728.468 382.23 728.604C383.07 728.745 383.922 728.813 384.785 728.813C386.449 728.813 387.91 728.485 389.174 727.837C390.438 727.188 391.425 726.235 392.13 724.977C392.841 723.724 393.196 722.224 393.196 720.48C393.196 718.444 392.768 716.667 391.91 715.149C391.053 713.632 389.834 712.453 388.255 711.607C386.675 710.76 384.791 710.337 382.608 710.337H380.041V739.063C380.041 739.407 380.142 739.695 380.345 739.932C380.549 740.169 380.853 740.321 381.265 740.383L383.736 740.676C384.097 740.727 384.351 740.829 384.509 740.992C384.661 741.156 384.74 741.381 384.74 741.675C384.74 741.951 384.644 742.171 384.458 742.335C384.272 742.498 383.967 742.577 383.544 742.577H371.782C371.376 742.577 371.071 742.498 370.879 742.335C370.682 742.171 370.586 741.951 370.586 741.675C370.586 741.184 370.896 740.851 371.517 740.671L373.108 740.377C373.514 740.281 373.818 740.123 374.027 739.898C374.23 739.678 374.332 739.396 374.332 739.057V711.872C374.332 711.528 374.23 711.251 374.027 711.031C373.824 710.811 373.519 710.653 373.108 710.552L371.517 710.258C370.896 710.078 370.586 709.745 370.586 709.254C370.586 708.961 370.682 708.735 370.879 708.583C371.077 708.425 371.376 708.352 371.782 708.352H382.76C386.15 708.352 389.05 708.882 391.453 709.942C393.856 711.003 395.701 712.453 396.976 714.297C398.251 716.137 398.894 718.246 398.894 720.627Z" fill="white"/>
<path d="M403.367 737.495C403.367 735.554 404.236 733.969 405.973 732.728C407.711 731.487 410.109 730.872 413.172 730.872C414.277 730.872 415.299 730.974 416.229 731.177C417.16 731.38 417.984 731.645 418.7 731.972L418.311 733.32C417.628 733.044 416.929 732.813 416.218 732.621C415.507 732.435 414.729 732.339 413.883 732.339C412.269 732.339 411.006 732.723 410.092 733.49C409.178 734.257 408.721 735.306 408.721 736.643C408.721 737.963 409.093 738.973 409.832 739.661C410.577 740.355 411.525 740.699 412.681 740.699C413.775 740.699 414.825 740.451 415.834 739.955C416.844 739.458 417.719 738.753 418.452 737.839L418.965 738.99C418.006 740.31 416.76 741.331 415.237 742.059C413.713 742.787 412.094 743.148 410.385 743.148C408.315 743.148 406.628 742.64 405.325 741.619C404.016 740.592 403.367 739.221 403.367 737.495ZM417.961 739.549V739.058L417.64 738.911V724.949C417.64 723.55 417.284 722.472 416.573 721.722C415.863 720.972 414.859 720.599 413.555 720.599C412.314 720.599 411.389 720.853 410.769 721.355C410.148 721.863 409.838 722.472 409.838 723.189V725.118C409.838 725.902 409.578 726.506 409.065 726.929C408.552 727.352 407.841 727.566 406.927 727.566C406.126 727.566 405.517 727.358 405.093 726.94C404.67 726.523 404.456 725.976 404.456 725.287C404.456 724.277 404.851 723.302 405.641 722.354C406.43 721.412 407.576 720.628 409.076 720.007C410.577 719.386 412.393 719.076 414.526 719.076C417.313 719.076 419.383 719.674 420.737 720.87C422.091 722.066 422.768 723.668 422.768 725.677V738.9C422.768 739.424 422.869 739.808 423.072 740.051C423.275 740.293 423.557 740.417 423.913 740.417C424.319 740.417 424.607 740.327 424.782 740.135C424.951 739.949 425.103 739.763 425.233 739.582C425.318 739.486 425.402 739.402 425.492 739.329C425.583 739.255 425.69 739.221 425.82 739.221C426 739.221 426.13 739.283 426.209 739.402C426.288 739.526 426.333 739.69 426.333 739.904C426.333 740.378 426.169 740.863 425.842 741.359C425.515 741.856 425.041 742.273 424.426 742.617C423.811 742.962 423.033 743.131 422.102 743.131C420.816 743.131 419.8 742.826 419.061 742.217C418.334 741.613 417.961 740.722 417.961 739.549Z" fill="white"/>
<path d="M438.347 707.817V739.16C438.347 739.617 438.426 739.955 438.589 740.175C438.753 740.395 438.995 740.548 439.322 740.627L440.423 740.869C440.716 740.965 440.93 741.084 441.071 741.225C441.212 741.366 441.28 741.541 441.28 741.749C441.28 742.009 441.19 742.212 441.015 742.359C440.834 742.505 440.552 742.579 440.157 742.579H431.284C430.911 742.579 430.629 742.505 430.454 742.359C430.274 742.212 430.184 742.009 430.184 741.749C430.184 741.552 430.251 741.383 430.392 741.236C430.533 741.089 430.748 740.976 431.041 740.892L432.192 740.621C432.519 740.542 432.762 740.39 432.925 740.17C433.089 739.95 433.168 739.617 433.168 739.177V711.309C433.168 710.936 433.106 710.66 432.987 710.491C432.863 710.322 432.654 710.22 432.367 710.186L430.731 710.113C430.437 710.079 430.229 710.006 430.11 709.882C429.986 709.757 429.93 709.599 429.93 709.402C429.93 709.188 429.997 709.013 430.138 708.877C430.279 708.736 430.533 708.607 430.906 708.471L434.939 707.055C435.475 706.858 435.904 706.722 436.22 706.638C436.536 706.559 436.812 706.514 437.038 706.514C437.478 706.514 437.805 706.626 438.031 706.858C438.239 707.089 438.347 707.411 438.347 707.817Z" fill="white"/>
<path d="M467.001 728.256C467.001 729.023 466.775 729.604 466.329 730.005C465.884 730.405 465.224 730.602 464.361 730.602H448.74V729.012H460.502C461.314 729.012 461.726 728.656 461.726 727.934C461.726 725.768 461.252 724.07 460.31 722.851C459.368 721.627 458.104 721.018 456.519 721.018C455.278 721.018 454.189 721.373 453.242 722.084C452.294 722.795 451.555 723.793 451.019 725.091C450.483 726.388 450.212 727.906 450.212 729.649C450.212 732.893 450.991 735.352 452.548 737.022C454.105 738.692 456.147 739.527 458.674 739.527C460.288 739.527 461.687 739.172 462.877 738.45C464.067 737.733 464.908 736.78 465.393 735.589C465.607 735.313 465.782 735.121 465.918 735.014C466.059 734.907 466.217 734.856 466.397 734.856C466.628 734.856 466.786 734.952 466.888 735.149C466.984 735.347 467.035 735.572 467.035 735.832C466.939 737.169 466.448 738.393 465.568 739.499C464.688 740.61 463.52 741.49 462.059 742.15C460.604 742.81 458.939 743.137 457.083 743.137C454.787 743.137 452.762 742.658 451.008 741.693C449.253 740.734 447.888 739.38 446.912 737.637C445.936 735.894 445.445 733.846 445.445 731.499C445.445 729.119 445.919 726.992 446.861 725.119C447.809 723.246 449.157 721.768 450.917 720.679C452.677 719.596 454.77 719.055 457.202 719.055C459.204 719.055 460.942 719.444 462.409 720.228C463.875 721.012 465.009 722.09 465.805 723.466C466.6 724.854 467.001 726.445 467.001 728.256Z" fill="white"/>
<path d="M480.32 720.92C479.095 720.92 478.131 721.236 477.426 721.863C476.715 722.489 476.359 723.307 476.359 724.317C476.359 724.954 476.506 725.518 476.799 726.015C477.093 726.511 477.623 726.968 478.39 727.385C479.158 727.803 480.246 728.186 481.668 728.548C483.936 729.067 485.707 729.71 486.988 730.466C488.268 731.221 489.165 732.085 489.69 733.044C490.209 734.003 490.474 735.074 490.474 736.248C490.474 738.318 489.729 739.982 488.234 741.246C486.745 742.51 484.613 743.142 481.843 743.142C480.833 743.142 479.998 743.051 479.338 742.876C478.678 742.696 478.131 742.515 477.685 742.341C477.245 742.16 476.856 742.07 476.512 742.07C476.185 742.07 475.931 742.166 475.756 742.352C475.575 742.538 475.406 742.724 475.242 742.905C475.079 743.085 474.853 743.175 474.56 743.175C474.329 743.175 474.154 743.108 474.024 742.967C473.894 742.826 473.77 742.577 473.657 742.222L471.846 737.111C471.7 736.654 471.655 736.276 471.711 735.971C471.767 735.667 471.954 735.464 472.264 735.351C472.574 735.238 472.845 735.238 473.082 735.362C473.319 735.486 473.528 735.701 473.702 736.011C474.419 737.348 475.197 738.403 476.038 739.176C476.878 739.949 477.764 740.501 478.701 740.829C479.637 741.156 480.596 741.319 481.572 741.319C483.118 741.319 484.28 740.992 485.053 740.343C485.826 739.689 486.215 738.826 486.215 737.748C486.215 737.111 486.051 736.53 485.724 736C485.397 735.469 484.804 734.979 483.941 734.522C483.078 734.065 481.848 733.642 480.252 733.252C478.261 732.778 476.681 732.203 475.496 731.515C474.312 730.832 473.465 730.009 472.952 729.044C472.439 728.085 472.179 726.968 472.179 725.693C472.179 724.39 472.506 723.239 473.155 722.246C473.804 721.253 474.729 720.475 475.919 719.911C477.11 719.347 478.503 719.064 480.1 719.064C481.126 719.064 481.961 719.16 482.604 719.358C483.247 719.555 483.778 719.753 484.195 719.956C484.613 720.159 484.979 720.26 485.307 720.26C485.662 720.26 485.944 720.159 486.136 719.956C486.333 719.753 486.508 719.55 486.672 719.358C486.835 719.16 487.055 719.064 487.332 719.064C487.529 719.064 487.693 719.132 487.834 719.273C487.975 719.414 488.076 719.645 488.139 719.967L489.532 724.836C489.645 725.326 489.684 725.727 489.656 726.043C489.622 726.359 489.442 726.584 489.12 726.714C488.827 726.827 488.567 726.804 488.336 726.641C488.105 726.477 487.873 726.201 487.625 725.806C486.694 724.029 485.589 722.771 484.302 722.032C483.016 721.287 481.691 720.92 480.32 720.92Z" fill="white"/>
<path d="M496.432 721.627L495.163 721.283C494.739 721.17 494.452 721.035 494.294 720.877C494.136 720.724 494.062 720.55 494.062 720.352C494.062 720.093 494.153 719.895 494.333 719.765C494.514 719.636 494.756 719.568 495.067 719.568H496.629C497.069 719.568 497.425 719.5 497.696 719.359C497.961 719.218 498.198 718.964 498.389 718.592L500.319 715.049C500.561 714.66 500.81 714.378 501.052 714.203C501.295 714.028 501.56 713.949 501.836 713.949C502.113 713.949 502.333 714.039 502.496 714.214C502.66 714.395 502.739 714.649 502.739 714.97V736.509C502.739 737.631 502.97 738.489 503.438 739.076C503.901 739.662 504.544 739.956 505.356 739.956C505.96 739.956 506.428 739.854 506.761 739.651C507.094 739.448 507.353 739.211 507.545 738.94C507.731 738.675 507.912 738.438 508.081 738.246C508.25 738.055 508.47 737.953 508.73 737.953C508.939 737.953 509.102 738.021 509.204 738.15C509.311 738.28 509.362 738.5 509.362 738.811C509.362 739.51 509.108 740.176 508.606 740.813C508.098 741.451 507.404 741.97 506.513 742.376C505.627 742.782 504.6 742.985 503.444 742.985C501.65 742.985 500.223 742.517 499.151 741.58C498.085 740.644 497.549 739.228 497.549 737.338V723.049C497.549 722.642 497.464 722.332 497.306 722.118C497.148 721.903 496.855 721.746 496.432 721.627ZM500.415 721.531V719.574H508.115C508.459 719.574 508.719 719.636 508.899 719.754C509.08 719.878 509.17 720.07 509.17 720.33C509.17 720.674 508.995 720.956 508.645 721.187C508.296 721.418 507.743 721.531 506.992 721.531H500.415Z" fill="white"/>
<path d="M521.737 720.554V739.159C521.737 739.616 521.816 739.955 521.98 740.175C522.143 740.395 522.386 740.547 522.713 740.626L523.813 740.869C524.107 740.965 524.321 741.083 524.462 741.224C524.603 741.365 524.671 741.54 524.671 741.749C524.671 742.008 524.58 742.211 524.406 742.358C524.225 742.505 523.943 742.578 523.548 742.578H514.674C514.302 742.578 514.02 742.505 513.845 742.358C513.664 742.211 513.574 742.008 513.574 741.749C513.574 741.551 513.642 741.382 513.783 741.235C513.924 741.089 514.138 740.976 514.432 740.891L515.582 740.621C515.91 740.542 516.152 740.389 516.316 740.169C516.479 739.949 516.558 739.616 516.558 739.176V724.041C516.558 723.668 516.496 723.398 516.378 723.234C516.254 723.07 516.045 722.975 515.757 722.941L514.121 722.867C513.828 722.817 513.619 722.732 513.501 722.613C513.377 722.489 513.32 722.343 513.32 722.162C513.32 721.948 513.388 721.773 513.529 721.626C513.67 721.48 513.924 721.344 514.296 721.209L518.33 719.787C518.866 719.59 519.294 719.454 519.61 719.37C519.926 719.291 520.203 719.246 520.428 719.246C520.868 719.246 521.196 719.358 521.421 719.59C521.63 719.827 521.737 720.143 521.737 720.554ZM518.584 714.71C517.523 714.71 516.666 714.417 516.006 713.83C515.346 713.243 515.018 712.493 515.018 711.579C515.018 710.648 515.346 709.898 516.006 709.328C516.666 708.758 517.523 708.471 518.584 708.471C519.661 708.471 520.53 708.758 521.19 709.339C521.85 709.921 522.183 710.665 522.183 711.579C522.183 712.493 521.85 713.243 521.19 713.83C520.53 714.417 519.661 714.71 518.584 714.71Z" fill="white"/>
<path d="M537.042 720.556V739.161C537.042 739.618 537.121 739.956 537.284 740.176C537.448 740.396 537.691 740.548 538.018 740.627L539.095 740.898C539.614 741.062 539.879 741.338 539.879 741.727C539.879 742.297 539.496 742.585 538.729 742.585H529.979C529.607 742.585 529.325 742.511 529.15 742.365C528.969 742.218 528.879 742.015 528.879 741.756C528.879 741.558 528.947 741.389 529.088 741.242C529.229 741.096 529.443 740.983 529.736 740.898L530.887 740.627C531.214 740.548 531.457 740.396 531.621 740.176C531.784 739.956 531.863 739.623 531.863 739.183V724.047C531.863 723.675 531.801 723.404 531.683 723.241C531.558 723.077 531.35 722.981 531.062 722.947L529.426 722.874C529.133 722.823 528.924 722.739 528.806 722.62C528.681 722.496 528.625 722.349 528.625 722.169C528.625 721.955 528.693 721.78 528.834 721.633C528.975 721.486 529.229 721.351 529.601 721.216L533.634 719.794C534.137 719.596 534.56 719.461 534.892 719.376C535.225 719.297 535.524 719.252 535.784 719.252C536.207 719.252 536.528 719.365 536.737 719.596C536.935 719.828 537.042 720.144 537.042 720.556ZM536.331 725.762L535.355 724.786L536.433 723.856C538.39 722.096 540.099 720.854 541.566 720.138C543.033 719.422 544.443 719.061 545.797 719.061C547.868 719.061 549.532 719.715 550.795 721.018C552.059 722.321 552.691 724.081 552.691 726.298V739.082C552.691 739.555 552.787 739.911 552.973 740.148C553.159 740.385 553.424 740.554 553.768 740.65L554.795 740.892C555.072 740.977 555.28 741.09 555.416 741.237C555.557 741.383 555.624 741.552 555.624 741.75C555.624 742.009 555.54 742.213 555.37 742.359C555.201 742.506 554.919 742.579 554.524 742.579H545.746C544.979 742.579 544.596 742.297 544.596 741.722C544.596 741.332 544.855 741.056 545.38 740.892L546.502 740.622C546.858 740.543 547.117 740.379 547.275 740.131C547.428 739.888 547.507 739.539 547.507 739.082V727.105C547.507 725.475 547.106 724.251 546.299 723.438C545.493 722.626 544.421 722.214 543.084 722.214C542.266 722.214 541.386 722.428 540.432 722.851C539.479 723.275 538.463 723.946 537.386 724.86L536.331 725.762Z" fill="white"/>
<path d="M581.272 728.256C581.272 729.023 581.046 729.604 580.601 730.005C580.155 730.405 579.495 730.602 578.632 730.602H563.005V729.012H574.768C575.58 729.012 575.992 728.656 575.992 727.934C575.992 725.768 575.518 724.07 574.576 722.851C573.634 721.627 572.37 721.018 570.785 721.018C569.544 721.018 568.455 721.373 567.507 722.084C566.56 722.795 565.82 723.793 565.285 725.091C564.749 726.388 564.478 727.906 564.478 729.649C564.478 732.893 565.256 735.352 566.813 737.022C568.37 738.692 570.413 739.527 572.94 739.527C574.553 739.527 575.952 739.172 577.143 738.45C578.333 737.733 579.174 736.78 579.659 735.589C579.873 735.313 580.048 735.121 580.183 735.014C580.324 734.907 580.482 734.856 580.663 734.856C580.894 734.856 581.052 734.952 581.154 735.149C581.25 735.347 581.3 735.572 581.3 735.832C581.204 737.169 580.714 738.393 579.834 739.499C578.953 740.61 577.786 741.49 576.325 742.15C574.869 742.81 573.205 743.137 571.349 743.137C569.053 743.137 567.028 742.658 565.273 741.693C563.519 740.734 562.154 739.38 561.178 737.637C560.202 735.894 559.711 733.846 559.711 731.499C559.711 729.119 560.185 726.992 561.127 725.119C562.075 723.246 563.423 721.768 565.183 720.679C566.943 719.596 569.036 719.055 571.467 719.055C573.47 719.055 575.208 719.444 576.674 720.228C578.141 721.012 579.275 722.09 580.07 723.466C580.872 724.854 581.272 726.445 581.272 728.256Z" fill="white"/>
<path d="M605.69 720.554V739.159C605.69 739.616 605.769 739.955 605.933 740.175C606.096 740.395 606.339 740.547 606.666 740.626L607.766 740.869C608.06 740.965 608.274 741.083 608.415 741.224C608.556 741.365 608.624 741.54 608.624 741.749C608.624 742.008 608.534 742.211 608.359 742.358C608.178 742.505 607.896 742.578 607.501 742.578H598.627C598.255 742.578 597.973 742.505 597.798 742.358C597.618 742.211 597.527 742.008 597.527 741.749C597.527 741.551 597.595 741.382 597.736 741.235C597.877 741.089 598.091 740.976 598.385 740.891L599.536 740.621C599.863 740.542 600.105 740.389 600.269 740.169C600.433 739.949 600.512 739.616 600.512 739.176V724.041C600.512 723.668 600.45 723.398 600.331 723.234C600.207 723.07 599.998 722.975 599.71 722.941L598.075 722.867C597.781 722.817 597.572 722.732 597.454 722.613C597.33 722.489 597.273 722.343 597.273 722.162C597.273 721.948 597.341 721.773 597.482 721.626C597.623 721.48 597.877 721.344 598.249 721.209L602.283 719.787C602.819 719.59 603.248 719.454 603.564 719.37C603.879 719.291 604.156 719.246 604.381 719.246C604.822 719.246 605.149 719.358 605.374 719.59C605.577 719.827 605.69 720.143 605.69 720.554ZM602.537 714.71C601.476 714.71 600.619 714.417 599.959 713.83C599.299 713.243 598.971 712.493 598.971 711.579C598.971 710.648 599.299 709.898 599.959 709.328C600.619 708.758 601.476 708.471 602.537 708.471C603.614 708.471 604.483 708.758 605.143 709.339C605.803 709.921 606.136 710.665 606.136 711.579C606.136 712.493 605.803 713.243 605.143 713.83C604.477 714.417 603.614 714.71 602.537 714.71Z" fill="white"/>
<path d="M620.995 720.556V739.161C620.995 739.618 621.074 739.956 621.238 740.176C621.401 740.396 621.644 740.548 621.971 740.627L623.048 740.898C623.567 741.062 623.833 741.338 623.833 741.727C623.833 742.297 623.449 742.585 622.682 742.585H613.932C613.56 742.585 613.278 742.511 613.103 742.365C612.922 742.218 612.832 742.015 612.832 741.756C612.832 741.558 612.9 741.389 613.041 741.242C613.182 741.096 613.396 740.983 613.689 740.898L614.84 740.627C615.167 740.548 615.41 740.396 615.574 740.176C615.737 739.956 615.816 739.623 615.816 739.183V724.047C615.816 723.675 615.754 723.404 615.636 723.241C615.512 723.077 615.303 722.981 615.015 722.947L613.379 722.874C613.086 722.823 612.877 722.739 612.759 722.62C612.635 722.496 612.578 722.349 612.578 722.169C612.578 721.955 612.646 721.78 612.787 721.633C612.928 721.486 613.182 721.351 613.554 721.216L617.588 719.794C618.09 719.596 618.513 719.461 618.846 719.376C619.178 719.297 619.477 719.252 619.737 719.252C620.16 719.252 620.482 719.365 620.69 719.596C620.899 719.828 620.995 720.144 620.995 720.556ZM620.284 725.762L619.308 724.786L620.386 723.856C622.343 722.096 624.053 720.854 625.519 720.138C626.986 719.422 628.396 719.061 629.75 719.061C631.821 719.061 633.485 719.715 634.749 721.018C636.012 722.321 636.644 724.081 636.644 726.298V739.082C636.644 739.555 636.74 739.911 636.926 740.148C637.112 740.385 637.377 740.554 637.721 740.65L638.748 740.892C639.025 740.977 639.233 741.09 639.369 741.237C639.51 741.383 639.577 741.552 639.577 741.75C639.577 742.009 639.493 742.213 639.324 742.359C639.154 742.506 638.872 742.579 638.477 742.579H629.7C628.932 742.579 628.549 742.297 628.549 741.722C628.549 741.332 628.808 741.056 629.333 740.892L630.455 740.622C630.811 740.543 631.07 740.379 631.228 740.131C631.381 739.888 631.46 739.539 631.46 739.082V727.105C631.46 725.475 631.059 724.251 630.252 723.438C629.446 722.626 628.374 722.214 627.037 722.214C626.219 722.214 625.339 722.428 624.385 722.851C623.432 723.275 622.417 723.946 621.339 724.86L620.284 725.762Z" fill="white"/>
<path d="M685.065 734.319C685.065 736.75 684.021 738.73 681.934 740.27C679.847 741.81 676.761 742.577 672.665 742.577H657.118C656.712 742.577 656.407 742.498 656.215 742.335C656.018 742.171 655.922 741.951 655.922 741.675C655.922 741.184 656.232 740.851 656.853 740.671L658.466 740.377C658.855 740.281 659.16 740.123 659.374 739.898C659.589 739.678 659.69 739.396 659.69 739.057V711.872C659.69 711.528 659.583 711.251 659.374 711.031C659.16 710.811 658.861 710.653 658.466 710.552L656.853 710.258C656.232 710.078 655.922 709.745 655.922 709.254C655.922 708.961 656.018 708.735 656.215 708.583C656.413 708.425 656.712 708.352 657.118 708.352H669.247C672.197 708.352 674.707 708.763 676.778 709.587C678.848 710.411 680.422 711.55 681.494 713.011C682.571 714.472 683.107 716.17 683.107 718.111C683.107 719.741 682.662 721.208 681.776 722.511C680.89 723.814 679.553 724.852 677.776 725.62C675.999 726.387 673.777 726.77 671.103 726.77L672.62 726.088C675.164 726.088 677.365 726.443 679.232 727.154C681.099 727.865 682.538 728.835 683.547 730.076C684.563 731.3 685.065 732.716 685.065 734.319ZM670.42 727.447H663.724V725.761H670.053C671.65 725.761 673.009 725.467 674.126 724.881C675.243 724.294 676.09 723.448 676.665 722.336C677.246 721.231 677.534 719.911 677.534 718.376C677.534 716.746 677.19 715.319 676.496 714.1C675.802 712.876 674.781 711.923 673.427 711.24C672.073 710.557 670.403 710.213 668.417 710.213H665.411V738.55C665.411 739.283 665.648 739.83 666.121 740.186C666.595 740.547 667.317 740.721 668.299 740.721H671.526C673.235 740.721 674.662 740.451 675.802 739.903C676.941 739.356 677.805 738.589 678.38 737.607C678.961 736.62 679.249 735.486 679.249 734.194C679.249 732.175 678.51 730.544 677.026 729.303C675.542 728.068 673.342 727.447 670.42 727.447Z" fill="white"/>
<path d="M696.949 720.556L697.243 726.225V739.161C697.243 739.584 697.339 739.905 697.525 740.114C697.711 740.328 698.033 740.464 698.49 740.531L700.69 740.853C701.034 740.904 701.288 741 701.462 741.146C701.632 741.293 701.716 741.496 701.716 741.756C701.716 742.015 701.62 742.218 701.423 742.365C701.226 742.511 700.943 742.585 700.566 742.585H690.174C689.802 742.585 689.52 742.511 689.345 742.365C689.164 742.218 689.074 742.015 689.074 741.756C689.074 741.558 689.142 741.389 689.283 741.242C689.424 741.096 689.638 740.983 689.932 740.898L691.082 740.627C691.41 740.548 691.652 740.396 691.816 740.176C691.979 739.956 692.058 739.623 692.058 739.183V724.098C692.058 723.726 691.996 723.449 691.878 723.28C691.754 723.111 691.545 723.009 691.257 722.976L689.621 722.902C689.328 722.868 689.119 722.795 689.001 722.671C688.877 722.547 688.82 722.389 688.82 722.191C688.82 721.977 688.894 721.802 689.04 721.667C689.187 721.526 689.441 721.396 689.796 721.261L693.756 719.845C694.411 719.613 694.896 719.461 695.212 719.382C695.528 719.303 695.776 719.258 695.957 719.258C696.267 719.258 696.504 719.354 696.667 719.551C696.82 719.749 696.916 720.082 696.949 720.556ZM696.363 729.796C696.363 727.483 696.701 725.525 697.389 723.929C698.072 722.333 698.969 721.12 700.069 720.296C701.169 719.472 702.337 719.061 703.578 719.061C705.062 719.061 706.212 719.467 707.036 720.285C707.86 721.103 708.272 722.231 708.272 723.681C708.272 724.803 708.029 725.655 707.549 726.236C707.07 726.817 706.444 727.105 705.677 727.105C704.909 727.105 704.317 726.891 703.894 726.456C703.471 726.028 703.256 725.424 703.256 724.662V723.833C703.239 723.28 703.104 722.868 702.85 722.598C702.596 722.327 702.168 722.191 701.57 722.191C700.87 722.191 700.182 722.474 699.516 723.038C698.851 723.602 698.303 724.442 697.88 725.554C697.457 726.671 697.243 728.081 697.243 729.796H696.363Z" fill="white"/>
<path d="M723.94 719.088C726.337 719.088 728.453 719.596 730.28 720.617C732.114 721.638 733.547 723.054 734.585 724.87C735.623 726.687 736.136 728.78 736.136 731.143C736.136 733.439 735.611 735.498 734.562 737.304C733.513 739.115 732.057 740.542 730.207 741.585C728.357 742.629 726.207 743.148 723.765 743.148C721.367 743.148 719.252 742.635 717.418 741.608C715.585 740.581 714.152 739.16 713.114 737.343C712.076 735.527 711.562 733.445 711.562 731.098C711.562 728.768 712.087 726.704 713.142 724.898C714.191 723.099 715.641 721.677 717.492 720.645C719.348 719.601 721.497 719.088 723.94 719.088ZM725.671 741.016C727.025 740.818 728.131 740.26 728.983 739.34C729.84 738.421 730.41 737.18 730.692 735.623C730.974 734.066 730.94 732.238 730.585 730.134C730.23 728.018 729.637 726.258 728.825 724.865C728.007 723.471 727.025 722.461 725.869 721.835C724.712 721.209 723.432 721 722.033 721.215C720.679 721.412 719.579 721.971 718.721 722.89C717.864 723.81 717.294 725.045 717.012 726.596C716.73 728.142 716.764 729.981 717.119 732.097C717.48 734.201 718.067 735.95 718.879 737.354C719.692 738.759 720.679 739.769 721.835 740.384C722.992 740.999 724.272 741.213 725.671 741.016Z" fill="white"/>
<path d="M753.057 719.088C755.454 719.088 757.57 719.596 759.398 720.617C761.231 721.638 762.664 723.054 763.702 724.87C764.734 726.687 765.253 728.78 765.253 731.143C765.253 733.439 764.729 735.498 763.679 737.304C762.63 739.115 761.175 740.542 759.324 741.585C757.474 742.629 755.325 743.148 752.882 743.148C750.484 743.148 748.369 742.635 746.535 741.608C744.702 740.581 743.269 739.16 742.231 737.343C741.199 735.527 740.68 733.445 740.68 731.098C740.68 728.768 741.204 726.704 742.259 724.898C743.309 723.099 744.758 721.677 746.609 720.645C748.465 719.601 750.614 719.088 753.057 719.088ZM754.794 741.016C756.148 740.818 757.254 740.26 758.106 739.34C758.963 738.421 759.533 737.18 759.815 735.623C760.103 734.066 760.063 732.238 759.708 730.134C759.352 728.018 758.76 726.258 757.948 724.865C757.13 723.471 756.148 722.461 754.992 721.835C753.835 721.209 752.555 721 751.156 721.215C749.802 721.412 748.702 721.971 747.844 722.89C746.987 723.81 746.417 725.045 746.135 726.596C745.853 728.148 745.887 729.981 746.242 732.097C746.603 734.201 747.19 735.95 748.002 737.354C748.814 738.759 749.802 739.769 750.958 740.384C752.109 740.999 753.39 741.213 754.794 741.016Z" fill="white"/>
<path d="M770.98 742.579C770.608 742.579 770.348 742.505 770.213 742.359C770.072 742.212 770.004 742.009 770.004 741.749C770.004 741.552 770.072 741.383 770.213 741.236C770.354 741.089 770.568 740.976 770.861 740.892L772.012 740.621C772.339 740.542 772.582 740.39 772.746 740.17C772.909 739.95 772.988 739.617 772.988 739.177V711.309C772.988 710.936 772.926 710.66 772.808 710.491C772.684 710.322 772.475 710.22 772.187 710.186L770.551 710.113C770.258 710.079 770.049 710.006 769.931 709.882C769.806 709.757 769.75 709.599 769.75 709.402C769.75 709.188 769.818 709.013 769.959 708.877C770.1 708.736 770.354 708.607 770.726 708.471L774.759 707.055C775.262 706.858 775.685 706.722 776.017 706.638C776.35 706.559 776.649 706.514 776.909 706.514C777.332 706.514 777.653 706.626 777.862 706.858C778.077 707.089 778.178 707.405 778.178 707.811V739.154C778.178 739.611 778.257 739.95 778.421 740.17C778.584 740.39 778.827 740.542 779.154 740.621L780.232 740.892C780.751 741.055 781.016 741.332 781.016 741.721C781.016 742.291 780.632 742.579 779.865 742.579H770.98ZM776.503 731.894L786.99 723.387C787.543 722.93 787.797 722.524 787.746 722.163C787.695 721.807 787.357 721.559 786.719 721.429L785.715 721.232C785.405 721.153 785.196 721.046 785.094 720.916C784.987 720.786 784.936 720.606 784.936 720.38C784.936 720.121 785.032 719.917 785.23 719.782C785.427 719.641 785.692 719.573 786.036 719.573H794.081C794.425 719.573 794.69 719.647 794.888 719.793C795.085 719.94 795.181 720.137 795.181 720.38C795.181 720.623 795.096 720.826 794.938 720.989C794.775 721.153 794.425 721.294 793.889 721.407C793.088 721.553 792.406 721.779 791.836 722.089C791.266 722.4 790.516 722.93 789.585 723.68L777.022 733.75L776.503 731.894ZM784.203 726.76L792.857 738.963C793.314 739.583 793.703 740.006 794.03 740.232C794.357 740.463 794.854 740.649 795.525 740.796C795.869 740.926 796.112 741.072 796.259 741.236C796.405 741.4 796.479 741.586 796.479 741.8C796.479 742.043 796.383 742.234 796.185 742.376C795.988 742.517 795.728 742.584 795.401 742.584H786.211C785.901 742.584 785.653 742.511 785.467 742.364C785.281 742.218 785.185 742.02 785.185 741.778C785.185 741.58 785.241 741.417 785.354 741.287C785.467 741.157 785.664 741.05 785.941 740.971L786.871 740.773C787.407 740.677 787.701 740.491 787.74 740.209C787.78 739.927 787.548 739.453 787.046 738.765L780.643 729.745L784.203 726.76Z" fill="white"/>
<path d="M807.87 707.817V739.16C807.87 739.617 807.949 739.955 808.113 740.175C808.276 740.395 808.519 740.548 808.846 740.627L809.946 740.869C810.239 740.965 810.454 741.084 810.595 741.225C810.736 741.366 810.803 741.541 810.803 741.749C810.803 742.009 810.713 742.212 810.538 742.359C810.358 742.505 810.076 742.579 809.681 742.579H800.807C800.435 742.579 800.153 742.505 799.978 742.359C799.797 742.212 799.707 742.009 799.707 741.749C799.707 741.552 799.775 741.383 799.916 741.236C800.057 741.089 800.271 740.976 800.564 740.892L801.715 740.621C802.042 740.542 802.285 740.39 802.449 740.17C802.612 739.95 802.691 739.617 802.691 739.177V711.309C802.691 710.936 802.629 710.66 802.511 710.491C802.387 710.322 802.178 710.22 801.89 710.186L800.254 710.113C799.961 710.079 799.752 710.006 799.634 709.882C799.51 709.757 799.453 709.599 799.453 709.402C799.453 709.188 799.521 709.013 799.662 708.877C799.803 708.736 800.057 708.607 800.429 708.471L804.463 707.055C804.999 706.858 805.427 706.722 805.743 706.638C806.059 706.559 806.336 706.514 806.561 706.514C807.001 706.514 807.328 706.626 807.554 706.858C807.763 707.089 807.87 707.411 807.87 707.817Z" fill="white"/>
<path d="M828.62 739.667L825.957 744.998L816.468 723.188C816.192 722.523 815.904 722.071 815.599 721.846C815.3 721.62 814.787 721.428 814.071 721.282C813.743 721.186 813.518 721.067 813.399 720.937C813.275 720.808 813.219 720.627 813.219 720.402C813.219 720.142 813.315 719.939 813.512 719.792C813.709 719.646 813.975 719.572 814.319 719.572H824.168C824.513 719.572 824.778 719.64 824.975 719.781C825.173 719.922 825.269 720.119 825.269 720.379C825.269 720.605 825.201 720.791 825.06 720.932C824.919 721.073 824.682 721.18 824.338 721.259L823.311 721.428C822.51 721.575 822.047 721.834 821.918 722.201C821.788 722.568 821.918 723.222 822.307 724.17L828.62 739.667ZM824.417 747.299L826.374 742.482L827.034 741.111L833.731 724.362C834.103 723.42 834.227 722.743 834.097 722.331C833.968 721.925 833.494 721.637 832.676 721.479L831.598 721.282C831.254 721.214 831.017 721.112 830.876 720.966C830.735 720.819 830.667 720.622 830.667 720.379C830.667 720.119 830.763 719.916 830.961 719.781C831.158 719.64 831.423 719.572 831.767 719.572H838.785C839.112 719.572 839.372 719.646 839.569 719.792C839.767 719.939 839.863 720.142 839.863 720.402C839.863 720.599 839.795 720.768 839.665 720.915C839.535 721.062 839.299 721.186 838.954 721.282C838.17 721.479 837.601 721.739 837.245 722.066C836.89 722.393 836.534 722.98 836.196 723.826L826.831 747.051C826.047 748.975 825.302 750.464 824.58 751.513C823.864 752.563 823.091 753.29 822.273 753.702C821.449 754.108 820.49 754.312 819.402 754.312C817.72 754.312 816.4 753.872 815.441 752.991C814.482 752.111 813.997 751.045 813.997 749.787C813.997 748.89 814.206 748.191 814.618 747.683C815.035 747.175 815.594 746.927 816.293 746.927C816.976 746.927 817.501 747.141 817.873 747.576C818.24 748.01 818.522 748.58 818.713 749.296L818.911 750.154C819.007 750.741 819.204 751.175 819.498 751.463C819.791 751.745 820.141 751.891 820.547 751.891C820.987 751.891 821.404 751.767 821.794 751.513C822.183 751.26 822.595 750.808 823.018 750.154C823.446 749.505 823.909 748.552 824.417 747.299Z" fill="white"/>
<path d="M851.018 720.556V739.161C851.018 739.618 851.097 739.956 851.261 740.176C851.425 740.396 851.667 740.548 851.994 740.627L853.072 740.898C853.591 741.062 853.856 741.338 853.856 741.727C853.856 742.297 853.472 742.585 852.705 742.585H843.955C843.583 742.585 843.301 742.511 843.126 742.365C842.946 742.218 842.855 742.015 842.855 741.756C842.855 741.558 842.923 741.389 843.064 741.242C843.205 741.096 843.42 740.983 843.713 740.898L844.864 740.627C845.191 740.548 845.433 740.396 845.597 740.176C845.761 739.956 845.84 739.623 845.84 739.183V724.047C845.84 723.675 845.778 723.404 845.659 723.241C845.535 723.077 845.326 722.981 845.039 722.947L843.403 722.874C843.109 722.823 842.901 722.739 842.782 722.62C842.658 722.496 842.602 722.349 842.602 722.169C842.602 721.955 842.669 721.78 842.81 721.633C842.951 721.486 843.205 721.351 843.577 721.216L847.611 719.794C848.113 719.596 848.536 719.461 848.869 719.376C849.202 719.297 849.501 719.252 849.76 719.252C850.183 719.252 850.505 719.365 850.714 719.596C850.923 719.828 851.018 720.144 851.018 720.556ZM850.308 725.762L849.332 724.786L850.409 723.856C852.367 722.096 854.076 720.854 855.543 720.138C857.009 719.422 858.42 719.061 859.774 719.061C861.844 719.061 863.508 719.715 864.772 721.018C866.036 722.321 866.667 724.081 866.667 726.298V739.082C866.667 739.555 866.763 739.911 866.95 740.148C867.136 740.385 867.401 740.554 867.745 740.65L868.772 740.892C869.048 740.977 869.257 741.09 869.392 741.237C869.533 741.383 869.601 741.552 869.601 741.75C869.601 742.009 869.516 742.213 869.347 742.359C869.178 742.506 868.896 742.579 868.501 742.579H859.723C858.956 742.579 858.572 742.297 858.572 741.722C858.572 741.332 858.832 741.056 859.356 740.892L860.479 740.622C860.834 740.543 861.094 740.379 861.252 740.131C861.404 739.888 861.483 739.539 861.483 739.082V727.105C861.483 725.475 861.082 724.251 860.276 723.438C859.469 722.626 858.397 722.214 857.06 722.214C856.242 722.214 855.362 722.428 854.409 722.851C853.455 723.275 852.44 723.946 851.363 724.86L850.308 725.762Z" fill="white"/>
</g>
<defs>
<clipPath id="clip0_10200_9790">
<rect width="993.949" height="515.12" fill="white" transform="translate(0 239.191)"/>
</clipPath>
</defs>
</svg>
