<svg width="994" height="912" viewBox="0 0 994 912" fill="none" xmlns="http://www.w3.org/2000/svg">
<g clip-path="url(#clip0_10200_9796)">
<path fill-rule="evenodd" clip-rule="evenodd" d="M664.409 372.641C663.307 364.115 664.409 359.246 666.623 354.376C679.908 371.408 718.64 386.026 740.762 368.984C750.72 361.68 765.107 344.638 783.922 342.204C789.85 341.193 795.933 341.612 801.665 343.426C802.767 347.073 803.88 349.507 803.88 353.164C792.809 351.942 778.422 358.033 769.565 367.771C759.607 378.722 747.434 401.835 710.916 395.764C684.376 389.672 671.091 379.934 664.409 372.641Z" fill="white"/>
<path fill-rule="evenodd" clip-rule="evenodd" d="M806.939 364.008C810.305 381.04 809.183 401.738 786.731 428.518C781.12 435.822 754.18 444.338 729.484 441.903C712.642 440.691 681.214 441.903 667.738 398.091C665.494 392 664.372 388.353 663.25 384.696C669.993 392 683.458 402.961 710.398 405.395C747.467 410.264 765.401 393.222 773.266 379.827C784.487 364.008 795.718 362.825 806.939 364.008Z" fill="white"/>
<path fill-rule="evenodd" clip-rule="evenodd" d="M669.641 342.276C672.005 338.616 673.187 333.747 673.187 327.669C673.187 324.012 669.641 305.758 673.187 291.15C705.097 324.012 737.007 302.111 751.193 293.585C766.562 283.847 779.556 281.412 790.196 281.412C792.56 289.938 792.56 288.716 793.743 304.545C793.743 313.061 797.289 322.8 800.836 332.538C786.649 328.881 770.098 330.103 750.011 343.488C722.83 361.742 701.55 367.834 669.641 342.276Z" fill="white"/>
<path fill-rule="evenodd" clip-rule="evenodd" d="M674.422 282.673C674.422 281.451 675.604 280.239 675.604 279.027C682.697 261.995 701.653 264.419 706.332 249.812C719.356 195.04 690.973 188.958 708.696 175.563C711.06 174.351 776.062 156.097 755.974 201.131C750.063 214.516 760.703 252.227 772.515 259.55C780.791 265.632 786.702 269.288 790.248 274.158C778.426 272.935 765.432 276.592 750.063 285.108C734.695 293.624 706.281 315.495 674.422 282.673Z" fill="white"/>
<path fill-rule="evenodd" clip-rule="evenodd" d="M416.098 305.926C417.34 298.463 419.825 292.251 422.319 286.029C437.237 300.957 458.387 312.148 488.213 281.02C521.785 246.205 562.812 278.535 567.791 279.778C591.416 290.969 607.576 294.695 618.767 293.453C622.494 302.159 623.776 312.108 624.988 322.047C595.142 328.268 577.74 309.613 555.358 302.159C513.079 288.484 490.697 310.856 484.486 314.593C477.052 319.602 439.722 327.066 416.098 305.926Z" fill="white"/>
<path fill-rule="evenodd" clip-rule="evenodd" d="M612.947 382.44C609.21 389.874 604.291 394.883 598.019 399.892C583.101 412.326 583.101 412.326 575.637 429.728C570.628 440.919 568.183 437.192 524.662 440.919C460.011 445.928 458.768 434.707 456.274 423.516C451.264 407.346 450.062 407.346 437.629 396.155C430.85 389.578 425.736 381.479 422.711 372.531C478.656 406.104 482.393 366.32 509.744 361.34C558.204 353.806 573.152 389.874 612.947 382.44Z" fill="white"/>
<path fill-rule="evenodd" clip-rule="evenodd" d="M421.548 360.159C417.475 347.712 415.379 334.703 415.336 321.607C436.465 334.05 473.765 337.777 491.178 325.344C542.153 288.044 579.453 347.726 625.429 337.777C624.186 350.21 621.702 362.643 615.48 373.844C575.696 380.056 563.263 341.514 512.287 350.22C482.471 352.695 476.26 392.479 421.548 360.159Z" fill="white"/>
<path fill-rule="evenodd" clip-rule="evenodd" d="M427.289 277.334C433.511 266.144 439.722 259.922 452.156 253.71C488.223 236.298 499.404 237.54 496.919 187.807C495.677 171.647 499.404 167.92 501.929 166.668H508.11C523.028 166.668 536.704 162.941 537.946 186.565C540.441 223.864 540.441 231.328 574.013 242.519C595.153 249.973 606.344 259.922 615.09 281.061C613.848 281.061 595.193 279.819 571.569 267.386C567.842 264.901 518.109 233.813 484.536 268.628C455.883 300.959 442.207 292.252 427.289 277.334Z" fill="white"/>
<path fill-rule="evenodd" clip-rule="evenodd" d="M366.165 414.079C356.016 425.36 329.908 446.53 257.382 443.705C215.303 442.292 193.563 411.254 187.762 383.031C200.786 371.74 225.472 356.221 268.994 380.206C286.396 391.497 329.908 419.72 366.165 414.079Z" fill="white"/>
<path fill-rule="evenodd" clip-rule="evenodd" d="M185.246 371.992V360.711C192.5 352.235 209.912 345.182 246.17 348.007C275.224 350.832 283.881 373.404 344.804 357.885C365.102 352.235 378.157 346.594 385.41 339.541C391.211 355.06 388.316 374.817 373.809 401.657C361.732 403.282 349.465 402.805 337.551 400.245C321.591 397.429 304.189 387.551 286.786 377.672C267.931 367.764 225.862 340.954 185.246 371.992Z" fill="white"/>
<path fill-rule="evenodd" clip-rule="evenodd" d="M185.246 349.419C185.246 339.54 188.152 336.715 191.057 329.662C192.5 328.249 195.405 326.836 199.753 322.649C224.409 305.707 240.369 318.411 280.985 321.236C328.845 324.051 346.247 315.585 357.859 300.066C368.008 308.532 375.261 315.585 379.61 331.124C372.356 338.138 362.207 342.416 341.899 348.056C280.985 363.575 273.772 341.043 244.717 338.178C208.46 335.302 192.52 339.54 185.246 349.419Z" fill="white"/>
<path fill-rule="evenodd" clip-rule="evenodd" d="M199.531 312.971C232.894 272.055 253.202 283.346 247.401 231.128C245.948 214.197 234.376 167.629 295.27 176.095C340.234 181.736 289.469 256.526 332.981 283.346C335.876 286.161 343.13 286.161 351.836 294.627C337.329 307.331 328.623 311.569 280.763 310.156C240.147 308.723 231.451 294.627 199.531 312.971Z" fill="white"/>
<path d="M219.801 566.666C218.275 565.93 216.878 564.952 215.663 563.771C214.825 565.127 213.777 566.341 212.557 567.368C211.495 568.139 210.914 568.54 210.794 568.6H208.59V551.889H212.116C212.941 554.646 214.188 557.258 215.813 559.633C219.393 564.729 224.032 567.281 229.729 567.287C231.204 567.393 232.684 567.181 234.069 566.664C235.454 566.148 236.712 565.34 237.757 564.294C238.802 563.249 239.61 561.991 240.127 560.606C240.643 559.221 240.856 557.741 240.75 556.267C240.771 554.395 240.168 552.569 239.037 551.077C237.841 549.519 236.399 548.165 234.769 547.07C233.066 545.897 230.681 544.435 227.635 542.671C224.379 540.896 221.231 538.929 218.208 536.78C215.762 534.968 213.676 532.715 212.056 530.138C210.319 527.289 209.449 523.996 209.552 520.66C209.525 517.876 210.373 515.153 211.976 512.876C213.826 510.38 216.344 508.459 219.24 507.335C223.023 505.86 227.063 505.159 231.122 505.272C234.725 505.323 238.25 506.325 241.341 508.177C242.743 508.954 244.045 509.9 245.218 510.992C246.058 509.641 247.095 508.422 248.294 507.375C249.356 506.614 249.947 506.203 250.057 506.143H252.262V522.864H248.685C247.967 520.144 246.809 517.558 245.258 515.21C243.899 513.032 242.117 511.148 240.019 509.67C237.915 508.199 235.402 507.428 232.835 507.466C231.713 507.463 230.603 507.706 229.584 508.176C228.564 508.647 227.66 509.334 226.934 510.191C225.265 512.103 224.385 514.577 224.47 517.114C224.449 519.218 225.114 521.271 226.363 522.965C227.658 524.722 229.235 526.253 231.032 527.493C232.889 528.809 235.413 530.358 238.606 532.142C241.704 533.866 244.714 535.745 247.623 537.772C249.927 539.429 251.899 541.506 253.434 543.894C255.042 546.395 255.871 549.317 255.818 552.289C255.839 555.394 254.882 558.426 253.083 560.956C250.992 563.797 248.121 565.969 244.818 567.207C240.576 568.838 236.055 569.614 231.513 569.492C227.438 569.509 223.42 568.539 219.801 566.666Z" fill="white"/>
<path d="M278.681 508.788L273.832 507.906V506.584H284.402C287.114 506.473 289.794 507.212 292.066 508.698C293.989 510.016 295.464 511.89 296.294 514.068L309.589 547.931L317.333 525.239L310.741 508.788L305.892 507.906V506.584H316.462C319.142 506.46 321.793 507.186 324.036 508.658C325.962 510.012 327.46 511.89 328.354 514.068L341.649 547.931L354.333 510.541L347.72 507.906V506.584H364.021V507.906L357.008 510.541L337.191 569.041H334.546L318.696 528.846L305.05 569.041H302.405L278.681 508.788Z" fill="white"/>
<path d="M384.297 568.209V566.897L389.577 565.574V509.229L384.297 507.906V506.584H409.394V507.906L404.114 509.229V565.524L409.394 566.847V568.209H384.297Z" fill="white"/>
<path d="M442.856 517.584V564.201L449.869 566.846V568.209H433.168V566.896L440.181 564.251V509.228L434.971 507.906V506.583H445.992C448.551 506.45 451.088 507.111 453.256 508.477C455.216 509.948 456.799 511.864 457.874 514.067L477.05 550.746L491.727 514.107C492.488 511.854 493.9 509.877 495.785 508.427C497.482 507.224 500.093 506.623 503.62 506.623H512.867V507.946L507.587 509.268V565.564L512.867 566.886V568.209H487.77V566.896L493.05 565.574V517.584L472.351 569.04H469.716L442.856 517.584Z" fill="white"/>
<path d="M546.328 517.584V564.201L553.341 566.846V568.209H536.609V566.896L543.622 564.251V509.229L538.343 507.906V506.584H549.363C551.925 506.449 554.466 507.11 556.637 508.477C558.598 509.948 560.181 511.864 561.255 514.068L580.451 550.746L595.199 514.108C595.946 511.861 597.34 509.885 599.206 508.427C600.91 507.225 603.525 506.624 607.051 506.624H616.308V507.946L611.019 509.269V565.564L616.308 566.886V568.209H591.262V566.896L596.541 565.574V517.584L575.843 569.04H573.228L546.328 517.584Z" fill="white"/>
<path d="M641.867 566.847L647.157 565.524V509.229L641.867 507.906V506.584H688.955V522.424H686.34C685.184 521.502 684.2 520.383 683.435 519.117C681.575 516.009 680.602 512.451 680.62 508.828H661.684V536.54H671.813C672.211 534.341 672.984 532.226 674.097 530.288C674.581 529.393 675.141 528.542 675.771 527.744H678.426V547.531H675.781C675.151 546.729 674.591 545.874 674.107 544.976C672.992 543.042 672.22 540.931 671.823 538.734H661.684V566.005H682.433C682.41 562.382 683.384 558.822 685.248 555.716C686.009 554.436 686.993 553.303 688.154 552.37H690.799V568.209H641.867V566.847Z" fill="white"/>
<path d="M716.289 566.847L721.569 565.524V509.229L716.289 507.906V506.584H739.623C749.601 506.584 756.791 508.097 761.193 511.122C763.292 512.476 765.005 514.35 766.164 516.562C767.323 518.775 767.888 521.25 767.805 523.746C767.955 526.95 766.917 530.097 764.89 532.583C762.879 534.893 760.299 536.637 757.406 537.642C754.113 538.885 750.627 539.539 747.107 539.576V540.016C749.048 540.111 750.97 540.447 752.827 541.018C756.935 542.314 759.724 544.632 761.193 547.971L769.118 565.564L773.526 566.887V568.209H761.193C756.384 568.209 752.864 565.718 750.633 560.735L741.827 540.948H736.096V565.574L742.258 566.897V568.209H716.289V566.847ZM739.623 538.694C743.73 538.694 746.96 537.405 749.311 534.827C751.662 532.249 752.834 528.555 752.827 523.746C752.827 518.937 751.655 515.24 749.311 512.655C746.966 510.071 743.737 508.781 739.623 508.788H736.096V538.694H739.623Z" fill="white"/>
<path d="M314.466 645.413C312.94 644.673 311.542 643.692 310.328 642.508C309.502 643.869 308.46 645.088 307.243 646.114C306.191 646.876 305.599 647.287 305.489 647.347H303.285V630.635H306.802C307.631 633.392 308.882 636.005 310.509 638.38C314.082 643.476 318.717 646.024 324.415 646.024C325.889 646.132 327.37 645.92 328.756 645.405C330.142 644.889 331.4 644.08 332.446 643.035C333.492 641.989 334.3 640.731 334.816 639.345C335.331 637.959 335.543 636.478 335.435 635.004C335.456 633.132 334.853 631.306 333.722 629.814C332.52 628.258 331.075 626.905 329.444 625.806C327.751 624.634 325.366 623.161 322.321 621.408C319.065 619.631 315.917 617.664 312.893 615.517C310.444 613.706 308.354 611.453 306.732 608.875C304.982 606.036 304.094 602.751 304.177 599.417C304.147 596.633 304.991 593.911 306.591 591.633C308.442 589.134 310.964 587.213 313.865 586.092C317.651 584.602 321.7 583.893 325.767 584.008C329.369 584.064 332.894 585.066 335.986 586.914C337.386 587.694 338.688 588.639 339.864 589.729C340.707 588.383 341.743 587.167 342.939 586.122C344.001 585.361 344.582 584.95 344.703 584.89H346.907V601.601H343.38C342.659 598.88 341.498 596.294 339.944 593.947C338.582 591.771 336.801 589.888 334.704 588.406C332.603 586.939 330.093 586.171 327.53 586.212C326.408 586.21 325.298 586.452 324.279 586.923C323.26 587.394 322.356 588.081 321.629 588.937C319.954 590.857 319.072 593.344 319.165 595.89C319.145 597.995 319.809 600.048 321.058 601.741C322.353 603.499 323.931 605.03 325.727 606.27C327.571 607.559 330.079 609.112 333.251 610.929C336.349 612.653 339.359 614.532 342.268 616.559C344.57 618.215 346.541 620.288 348.079 622.671C349.682 625.177 350.509 628.101 350.453 631.076C350.471 634.179 349.519 637.209 347.728 639.742C345.649 642.55 342.808 644.702 339.543 645.944C335.302 647.574 330.78 648.351 326.238 648.228C322.144 648.26 318.103 647.293 314.466 645.413Z" fill="white"/>
<path d="M385.623 645.593L390.903 644.27V587.534H380.784C380.765 591.164 379.761 594.72 377.878 597.823C377.129 599.088 376.174 600.219 375.053 601.17H372.418V585.33H423.954V601.17H421.309C420.147 600.239 419.162 599.105 418.404 597.823C416.538 594.717 415.56 591.158 415.579 587.534H405.46V644.27L410.74 645.593V646.905H385.693L385.623 645.593Z" fill="white"/>
<path d="M458.797 642.115C454.342 638.034 452.111 632.3 452.104 624.913V587.964L446.824 586.652V585.329H471.921V586.652L466.631 587.964V624.913C466.631 632.474 467.807 637.884 470.158 641.144C472.509 644.403 475.885 646.029 480.287 646.023C483.065 645.998 485.764 645.089 487.991 643.428C490.569 641.524 492.604 638.978 493.892 636.044C495.45 632.544 496.216 628.743 496.136 624.913V589.246L489.123 586.612V585.289H505.855V586.612L498.842 589.246V624.913C498.928 629.209 498.001 633.465 496.136 637.336C494.574 640.666 492.077 643.471 488.95 645.408C485.823 647.345 482.201 648.331 478.524 648.247C469.841 648.233 463.265 646.19 458.797 642.115Z" fill="white"/>
<path d="M528.281 645.593L533.561 644.27V587.965L528.281 586.653V585.33H550.733C561.24 585.33 569.298 588.028 574.908 593.425C580.519 598.822 583.324 606.386 583.324 616.118C583.324 625.856 580.519 633.423 574.908 638.82C569.298 644.217 561.24 646.912 550.733 646.905H528.281V645.593ZM550.733 644.711C553.242 644.803 555.732 644.238 557.957 643.073C560.181 641.908 562.063 640.183 563.417 638.069C566.416 633.64 567.912 626.323 567.905 616.118C567.899 605.912 566.403 598.595 563.417 594.167C562.061 592.055 560.178 590.332 557.954 589.169C555.73 588.006 553.241 587.443 550.733 587.534H548.098V644.711H550.733Z" fill="white"/>
<path d="M608.852 646.905V645.593L614.131 644.27V587.965L608.852 586.653V585.33H633.898V586.653L628.619 587.965V644.27L633.898 645.593V646.905H608.852Z" fill="white"/>
<path d="M673.42 644.491C669.044 641.945 665.549 638.125 663.402 633.541C661.057 628.732 659.882 622.924 659.875 616.118C659.868 609.312 661.044 603.508 663.402 598.706C665.546 594.119 669.042 590.298 673.42 587.755C678.074 585.294 683.259 584.008 688.524 584.008C693.788 584.008 698.973 585.294 703.627 587.755C708.004 590.299 711.5 594.12 713.646 598.706C715.99 603.515 717.162 609.319 717.162 616.118C717.162 622.917 715.99 628.725 713.646 633.541C711.497 638.125 708.002 641.944 703.627 644.491C698.971 646.945 693.787 648.228 688.524 648.228C683.26 648.228 678.076 646.945 673.42 644.491ZM694.911 643.559C696.874 641.636 698.504 638.413 699.8 633.891C701.095 629.37 701.74 623.445 701.733 616.118C701.733 608.771 701.089 602.85 699.8 598.355C698.511 593.86 696.881 590.634 694.911 588.677C694.116 587.765 693.135 587.034 692.034 586.533C690.933 586.033 689.738 585.773 688.529 585.773C687.319 585.773 686.124 586.033 685.023 586.533C683.922 587.034 682.941 587.765 682.147 588.677C680.143 590.614 678.513 593.84 677.258 598.355C676.002 602.87 675.357 608.791 675.324 616.118C675.324 623.465 675.968 629.39 677.258 633.891C678.547 638.393 680.176 641.616 682.147 643.559C682.941 644.471 683.922 645.202 685.023 645.703C686.124 646.204 687.319 646.463 688.529 646.463C689.738 646.463 690.933 646.204 692.034 645.703C693.135 645.202 694.116 644.471 694.911 643.559Z" fill="white"/>
<path d="M181.5 720.031H185.297L191.799 738.426L191.228 738.225L195.997 725.862L197.5 730.23L191.098 745.158L181.5 720.031ZM193.132 720.031H196.328L203.431 738.195L202.73 738.065L208.921 720.031H212.398L202.93 745.078L193.132 720.031Z" fill="white"/>
<path d="M242.952 719.932V743.977H239.716V733.457H227.123V744.027H223.887V719.982H227.123V730.411H239.716V719.932H242.952Z" fill="white"/>
<path d="M256.582 719.932H272.241V723.027H259.818V730.361H270.909V733.517H259.818V740.951H272.672V744.047H256.582V719.932Z" fill="white"/>
<path d="M291.375 719.932C292.518 719.922 293.656 720.084 294.751 720.413C295.737 720.711 296.656 721.197 297.456 721.846C298.221 722.488 298.834 723.292 299.249 724.2C299.697 725.205 299.92 726.296 299.901 727.396C299.901 728.343 299.763 729.285 299.49 730.191C299.21 731.106 298.742 731.952 298.117 732.676C297.436 733.465 296.577 734.083 295.613 734.479C294.391 734.968 293.081 735.2 291.765 735.161H288.209V744.027H284.973V719.982L291.375 719.932ZM291.705 732.035C292.522 732.059 293.335 731.908 294.09 731.594C294.665 731.351 295.171 730.969 295.562 730.482C295.91 730.051 296.172 729.558 296.334 729.029C296.65 728.052 296.65 727 296.334 726.024C296.155 725.494 295.88 725.001 295.522 724.571C295.137 724.098 294.651 723.718 294.1 723.459C293.425 723.149 292.688 722.998 291.946 723.018H288.219V732.035H291.705ZM295.713 733.898L302.015 744.027H298.288L291.856 734.008L295.713 733.898Z" fill="white"/>
<path d="M313.598 719.932H329.257V723.027H316.834V730.361H327.924V733.517H316.834V740.951H329.778V744.047H313.648L313.598 719.932Z" fill="white"/>
<path d="M357.047 720.031H360.834L367.326 738.426L366.765 738.225L371.524 725.862L373.027 730.23L366.625 745.158L357.047 720.031ZM368.679 720.031H371.855L378.948 738.195L378.247 738.065L384.448 720.031H387.915L378.447 745.078L368.679 720.031Z" fill="white"/>
<path d="M394.008 744.027L404.507 718.98H404.708L415.238 744.027H411.541L403.676 723.99L405.97 722.487L397.214 744.017L394.008 744.027ZM400.179 734.9H409.136L410.208 737.695H399.238L400.179 734.9Z" fill="white"/>
<path d="M422.773 719.932H438.803V723.027H432.331V744.067H429.105V723.027H422.773V719.932Z" fill="white"/>
<path d="M450.594 719.932H466.253V723.027H453.83V730.361H464.921V733.517H453.83V740.951H466.724V744.047H450.594V719.932Z" fill="white"/>
<path d="M485.386 719.932C486.53 719.922 487.668 720.084 488.763 720.413C489.749 720.711 490.667 721.197 491.468 721.846C492.233 722.488 492.845 723.292 493.261 724.2C493.714 725.203 493.937 726.296 493.912 727.396C493.913 728.343 493.774 729.285 493.502 730.191C493.213 731.147 492.716 732.027 492.048 732.768C491.379 733.509 490.555 734.094 489.634 734.479C488.412 734.967 487.103 735.199 485.787 735.161H482.22V744.027H478.984V719.982L485.386 719.932ZM485.717 732.035C486.534 732.06 487.347 731.91 488.101 731.594C488.678 731.348 489.187 730.967 489.584 730.482C489.925 730.048 490.183 729.556 490.346 729.029C490.675 728.054 490.675 726.998 490.346 726.024C490.17 725.494 489.898 725.002 489.544 724.571C489.137 724.11 488.635 723.744 488.071 723.499C487.396 723.189 486.66 723.038 485.917 723.058H482.19V732.075L485.717 732.035ZM489.724 733.898L496.026 744.027H492.289L485.857 734.008L489.724 733.898Z" fill="white"/>
<path d="M531.536 732.425C530.913 732.429 530.297 732.555 529.722 732.796C529.137 733.036 528.599 733.375 528.129 733.798C527.653 734.211 527.265 734.715 526.987 735.281C526.715 735.846 526.574 736.466 526.576 737.094C526.557 737.908 526.796 738.708 527.258 739.378C527.725 740.04 528.357 740.568 529.091 740.911C529.877 741.281 530.737 741.469 531.606 741.462C532.368 741.474 533.125 741.345 533.84 741.082C534.45 740.851 535.014 740.512 535.503 740.08C535.931 739.679 536.272 739.195 536.505 738.657L538.569 740.46C537.904 741.616 536.947 742.577 535.794 743.246C534.461 743.958 532.981 744.349 531.47 744.385C529.96 744.422 528.462 744.103 527.097 743.456C525.933 742.873 524.942 741.996 524.222 740.911C523.543 739.829 523.195 738.572 523.22 737.294C523.207 736.278 523.452 735.275 523.931 734.379C524.413 733.502 525.051 732.721 525.815 732.075C526.602 731.413 527.492 730.885 528.45 730.512C529.406 730.13 530.426 729.932 531.455 729.931L531.536 732.425ZM543.768 744.027H540.001L528.44 728.769C528.239 728.458 528.009 728.067 527.738 727.596C527.464 727.097 527.236 726.574 527.057 726.033C526.87 725.461 526.775 724.862 526.777 724.26C526.769 723.325 527.004 722.403 527.458 721.585C527.929 720.746 528.622 720.052 529.462 719.581C530.451 719.035 531.568 718.765 532.698 718.8C533.915 718.778 535.12 719.046 536.214 719.581C537.165 720.04 538.027 720.664 538.759 721.425L537.166 723.499C536.557 722.935 535.884 722.445 535.162 722.036C534.57 721.696 533.901 721.514 533.219 721.505C532.811 721.473 532.402 721.529 532.017 721.667C531.633 721.806 531.282 722.024 530.989 722.308C530.695 722.592 530.465 722.936 530.314 723.315C530.163 723.695 530.095 724.102 530.113 724.511C530.121 724.933 530.205 725.351 530.363 725.743C530.507 726.111 530.681 726.466 530.884 726.805C531.008 726.982 531.109 727.174 531.185 727.376L543.768 744.027ZM539.901 729.901H542.907L539.01 739.919L536.675 738.417L539.901 729.901Z" fill="white"/>
<path d="M590.556 742.224C590.034 742.563 589.488 742.864 588.923 743.125C588.15 743.487 587.34 743.766 586.509 743.957C583.816 744.563 581.002 744.332 578.444 743.296C577.016 742.696 575.726 741.812 574.651 740.697C573.576 739.583 572.74 738.262 572.192 736.814C571.634 735.328 571.352 733.752 571.36 732.165C571.341 730.456 571.636 728.758 572.232 727.156C572.776 725.69 573.614 724.351 574.695 723.221C575.775 722.091 577.074 721.193 578.514 720.583C580.026 719.95 581.653 719.633 583.293 719.651C584.628 719.634 585.957 719.83 587.23 720.233C588.278 720.568 589.286 721.018 590.236 721.575L588.943 724.641C588.177 724.129 587.361 723.696 586.509 723.348C585.479 722.935 584.377 722.731 583.267 722.748C582.158 722.766 581.063 723.004 580.046 723.449C578.996 723.923 578.052 724.604 577.271 725.452C575.597 727.224 574.677 729.577 574.707 732.015C574.698 733.247 574.908 734.472 575.328 735.631C575.713 736.718 576.313 737.716 577.091 738.567C577.87 739.406 578.82 740.069 579.876 740.511C581.037 740.995 582.285 741.234 583.543 741.212C584.657 741.228 585.764 741.038 586.809 740.651C587.65 740.333 588.445 739.905 589.174 739.378L590.556 742.224Z" fill="white"/>
<path d="M602.648 719.932H605.885V740.971H618.117V744.067H602.648V719.932Z" fill="white"/>
<path d="M627.641 744.027L638.14 718.98H638.341L648.87 744.027H645.173L637.309 723.99L639.603 722.487L630.837 744.017L627.641 744.027ZM633.802 734.9H642.819L643.891 737.695H632.87L633.802 734.9Z" fill="white"/>
<path d="M663.395 735.993L654.469 719.963H658.476L665.64 733.258L664.638 733.328L671.741 719.963H675.668L666.652 735.993V744.008H663.395V735.993Z" fill="white"/>
<path d="M703.93 744.027V719.16L716.563 737.134L715.191 736.833L727.824 719.16V744.027H724.588V726.504L724.819 728.137L715.802 741.001H715.732L706.484 728.127L707.025 726.634V744.027H703.93Z" fill="white"/>
<path d="M741.475 719.932H757.145V723.027H744.711V730.361H755.812V733.517H744.711V740.951H757.575V744.047H741.445L741.475 719.932Z" fill="white"/>
<path d="M769.867 719.932H785.536V723.027H773.103V730.361H784.204V733.517H773.103V740.951H785.997V744.047H769.867V719.932Z" fill="white"/>
<path d="M796.469 719.932H812.499V723.027H806.027V744.067H802.801V723.027H796.469V719.932Z" fill="white"/>
</g>
<defs>
<clipPath id="clip0_10200_9796">
<rect width="631" height="578.702" fill="white" transform="translate(181.5 166.457)"/>
</clipPath>
</defs>
</svg>
