<svg id="Layer_1" data-name="Layer 1" xmlns="http://www.w3.org/2000/svg" viewBox="0 0 629.82 577.62"><defs><style>.cls-1,.cls-3{fill:#fff;}.cls-1{fill-rule:evenodd;}.cls-2{isolation:isolate;}</style></defs><path class="cls-1" d="M482,205.8c-1.1-8.51,0-13.37,2.21-18.23,13.26,17,51.92,31.59,74,14.58,9.94-7.29,24.3-24.3,43.08-26.73A37.69,37.69,0,0,1,619,176.64c1.1,3.64,2.21,6.07,2.21,9.72-11.05-1.22-25.41,4.86-34.25,14.58-9.94,10.93-22.09,34-58.54,27.94C501.93,222.8,488.67,213.08,482,205.8Z"/><path class="cls-1" d="M624.27,197.18c3.36,17,2.24,37.66-20.17,64.39-5.6,7.29-32.49,15.79-57.14,13.36-16.81-1.21-48.18,0-61.63-43.73-2.24-6.08-3.36-9.72-4.48-13.37,6.73,7.29,20.17,18.23,47.06,20.66,37,4.86,54.9-12.15,62.75-25.52C601.86,197.18,613.07,196,624.27,197.18Z"/><path class="cls-1" d="M487.23,175.49q3.54-5.48,3.54-14.58c0-3.65-3.54-21.87,0-36.45,31.85,32.8,63.7,10.94,77.86,2.43,15.34-9.72,28.31-12.15,38.93-12.15,2.36,8.51,2.36,7.29,3.54,23.09,0,8.5,3.54,18.22,7.08,27.94-14.16-3.65-30.68-2.43-50.73,10.93C540.32,194.92,519.08,201,487.23,175.49Z"/><path class="cls-1" d="M492,116c0-1.22,1.18-2.43,1.18-3.64,7.08-17,26-14.58,30.67-29.16,13-54.67-15.33-60.74,2.36-74.11,2.36-1.21,67.24-19.43,47.19,25.52-5.9,13.36,4.72,51,16.51,58.31,8.26,6.07,14.16,9.72,17.7,14.58-11.8-1.22-24.77,2.43-40.11,10.93S523.8,148.76,492,116Z"/><path class="cls-1" d="M234.16,139.21c1.24-7.45,3.72-13.65,6.21-19.86,14.89,14.9,36,26.07,65.77-5,33.51-34.75,74.46-2.48,79.43-1.24,23.58,11.17,39.71,14.89,50.88,13.65,3.72,8.69,5,18.62,6.21,28.54-29.79,6.21-47.16-12.41-69.5-19.85-42.2-13.65-64.54,8.68-70.74,12.41C295,152.86,257.74,160.31,234.16,139.21Z"/><path class="cls-1" d="M430.64,215.58C426.91,223,422,228,415.74,233c-14.89,12.41-14.89,12.41-22.34,29.78-5,11.17-7.44,7.45-50.88,11.17-64.53,5-65.77-6.2-68.26-17.37-5-16.14-6.2-16.14-18.61-27.31a59.34,59.34,0,0,1-14.89-23.58c55.84,33.51,59.57-6.2,86.87-11.17C376,187,390.92,223,430.64,215.58Z"/><path class="cls-1" d="M239.6,193.34a125.06,125.06,0,0,1-6.2-38.48c21.09,12.42,58.32,16.14,75.7,3.73,50.88-37.23,88.11,22.34,134,12.41-1.24,12.41-3.72,24.82-9.93,36-39.71,6.2-52.12-32.27-103-23.58C300.41,185.89,294.21,225.6,239.6,193.34Z"/><path class="cls-1" d="M245.33,110.67c6.21-11.17,12.41-17.38,24.82-23.58,36-17.38,47.16-16.14,44.68-65.78-1.24-16.13,2.48-19.85,5-21.1H326c14.89,0,28.54-3.72,29.78,19.86,2.49,37.23,2.49,44.68,36,55.85,21.1,7.44,32.27,17.37,41,38.47-1.24,0-19.86-1.24-43.44-13.65-3.72-2.48-53.36-33.51-86.87,1.24C273.87,134.25,260.22,125.56,245.33,110.67Z"/><path class="cls-1" d="M184.32,247.16c-10.13,11.26-36.19,32.39-108.58,29.57-42-1.41-63.7-32.39-69.49-60.56,13-11.27,37.64-26.76,81.08-2.82C104.7,224.62,148.13,252.79,184.32,247.16Z"/><path class="cls-1" d="M3.74,205.15V193.89c7.24-8.46,24.62-15.5,60.81-12.68,29,2.82,37.64,25.35,98.45,9.86,20.26-5.64,33.29-11.27,40.53-18.31,5.79,15.49,2.9,35.21-11.58,62a105.37,105.37,0,0,1-36.19-1.41c-15.93-2.81-33.3-12.67-50.67-22.53C86.27,200.93,44.28,174.17,3.74,205.15Z"/><path class="cls-1" d="M3.74,182.62c0-9.86,2.9-12.68,5.8-19.72,1.44-1.41,4.34-2.82,8.68-7,24.61-16.91,40.54-4.23,81.08-1.41,47.77,2.81,65.14-5.64,76.73-21.13,10.13,8.45,17.37,15.49,21.71,31-7.24,7-17.37,11.27-37.64,16.9-60.8,15.49-68-7-97-9.86C26.91,168.53,11,172.76,3.74,182.62Z"/><path class="cls-1" d="M18,146.24C51.3,105.4,71.57,116.67,65.78,64.55c-1.45-16.9-13-63.38,47.78-54.93,44.88,5.63-5.79,80.28,37.64,107.05,2.89,2.81,10.13,2.81,18.82,11.26-14.48,12.68-23.17,16.91-70.94,15.5C58.54,142,49.86,127.93,18,146.24Z"/><g class="cls-2"><path class="cls-3" d="M38.23,399.46a15.72,15.72,0,0,1-4.13-2.89A15,15,0,0,1,31,400.16c-1.06.77-1.64,1.17-1.76,1.23h-2.2V384.71h3.52a27.76,27.76,0,0,0,3.69,7.73q5.36,7.63,13.89,7.64a10.29,10.29,0,0,0,11-11,8.42,8.42,0,0,0-1.71-5.18,18.08,18.08,0,0,0-4.26-4c-1.7-1.17-4.08-2.63-7.12-4.39a93.64,93.64,0,0,1-9.41-5.88A24.43,24.43,0,0,1,30.5,363,17.16,17.16,0,0,1,28,353.54a13.28,13.28,0,0,1,2.42-7.77,16.42,16.42,0,0,1,7.25-5.53,30.33,30.33,0,0,1,11.86-2.06,20.41,20.41,0,0,1,10.2,2.9,19.66,19.66,0,0,1,3.87,2.81,16,16,0,0,1,3.07-3.61c1.06-.76,1.65-1.17,1.76-1.23h2.2v16.69H67.06a25.82,25.82,0,0,0-3.42-7.64,19.2,19.2,0,0,0-5.23-5.53,12.2,12.2,0,0,0-7.17-2.2,7.7,7.7,0,0,0-5.89,2.72A10,10,0,0,0,42.89,350a9.68,9.68,0,0,0,1.89,5.84,19.66,19.66,0,0,0,4.66,4.52Q52.22,362.33,57,365a105.17,105.17,0,0,1,9,5.62,22.54,22.54,0,0,1,5.8,6.11,15,15,0,0,1,2.38,8.38,14.76,14.76,0,0,1-2.73,8.65A18.16,18.16,0,0,1,63.2,400a34.43,34.43,0,0,1-13.28,2.28A25.2,25.2,0,0,1,38.23,399.46Z"/><path class="cls-3" d="M97,341.69l-4.84-.88v-1.32h10.55a13,13,0,0,1,7.65,2.11,11.44,11.44,0,0,1,4.22,5.36l13.27,33.8,7.73-22.65L129,341.69l-4.84-.88v-1.32h10.55a12.71,12.71,0,0,1,7.56,2.07,12.32,12.32,0,0,1,4.31,5.4l13.27,33.8,12.66-37.32-6.6-2.63v-1.32h16.27v1.32l-7,2.63L155.4,401.83h-2.64l-15.82-40.12-13.62,40.12h-2.64Z"/><path class="cls-3" d="M202.42,401v-1.31l5.27-1.32V342.13l-5.27-1.32v-1.32h25.05v1.32l-5.27,1.32v56.19l5.27,1.32V401Z"/><path class="cls-3" d="M260.87,350.47V397l7,2.64V401H251.2v-1.31l7-2.64V342.13L253,340.81v-1.32h11a12.39,12.39,0,0,1,7.25,1.89,15.44,15.44,0,0,1,4.61,5.58L295,383.57,309.65,347a12,12,0,0,1,4.05-5.67q2.54-1.8,7.82-1.8h9.23v1.32l-5.27,1.32v56.19l5.27,1.32V401H305.7v-1.31l5.27-1.32V350.47l-20.66,51.36h-2.63Z"/><path class="cls-3" d="M364.15,350.47V397l7,2.64V401h-16.7v-1.31l7-2.64V342.13l-5.27-1.32v-1.32h11a12.4,12.4,0,0,1,7.26,1.89,15.44,15.44,0,0,1,4.61,5.58l19.16,36.61L412.93,347a12,12,0,0,1,4-5.67q2.55-1.8,7.83-1.8H434v1.32l-5.28,1.32v56.19l5.28,1.32V401H409v-1.31l5.27-1.32V350.47l-20.66,51.36H391Z"/><path class="cls-3" d="M459.51,399.64l5.28-1.32V342.13l-5.28-1.32v-1.32h47V355.3H503.9A12.46,12.46,0,0,1,501,352a19.81,19.81,0,0,1-2.81-10.27h-18.9v27.66H489.4a19.49,19.49,0,0,1,2.28-6.24,17.63,17.63,0,0,1,1.67-2.54H496v19.75h-2.64a17.72,17.72,0,0,1-1.67-2.55,19.35,19.35,0,0,1-2.28-6.23H479.29v27.22H500a19.71,19.71,0,0,1,2.81-10.27,12.46,12.46,0,0,1,2.9-3.34h2.64V401H459.51Z"/><path class="cls-3" d="M533.79,399.64l5.27-1.32V342.13l-5.27-1.32v-1.32h23.29q14.94,0,21.53,4.53a14.42,14.42,0,0,1,6.6,12.6,13,13,0,0,1-2.91,8.82,17.53,17.53,0,0,1-7.47,5.05,30,30,0,0,1-10.28,1.93v.44a23.26,23.26,0,0,1,5.71,1q6.15,1.94,8.35,6.94l7.91,17.56,4.4,1.32V401H578.61q-7.2,0-10.54-7.46l-8.79-19.75h-5.72v24.58l6.15,1.32V401H533.79Zm23.29-28.1q6.15,0,9.67-3.86t3.51-11.06q0-7.2-3.51-11.07t-9.67-3.86h-3.52v29.85Z"/><path class="cls-3" d="M132.72,478.06a15.74,15.74,0,0,1-4.13-2.9,14.65,14.65,0,0,1-3.08,3.6c-1.05.76-1.64,1.17-1.75,1.23h-2.2V463.31h3.51a27.92,27.92,0,0,0,3.7,7.73q5.35,7.63,13.88,7.63a10.28,10.28,0,0,0,11-11,8.42,8.42,0,0,0-1.71-5.18,18.33,18.33,0,0,0-4.27-4c-1.69-1.17-4.07-2.64-7.11-4.39a94.31,94.31,0,0,1-9.41-5.88,24.43,24.43,0,0,1-6.15-6.63,17.18,17.18,0,0,1-2.55-9.44,13.27,13.27,0,0,1,2.41-7.77,16.38,16.38,0,0,1,7.26-5.53A30.1,30.1,0,0,1,144,416.77a20.51,20.51,0,0,1,10.2,2.9,20.08,20.08,0,0,1,3.87,2.81,16.19,16.19,0,0,1,3.07-3.6c1.06-.76,1.64-1.17,1.76-1.23h2.2v16.68h-3.52a25.82,25.82,0,0,0-3.43-7.64,19.32,19.32,0,0,0-5.23-5.53,12.16,12.16,0,0,0-7.16-2.19,7.7,7.7,0,0,0-5.89,2.72,10,10,0,0,0-2.46,6.94,9.68,9.68,0,0,0,1.89,5.84,19.66,19.66,0,0,0,4.66,4.52q2.76,1.93,7.51,4.65a105.56,105.56,0,0,1,9,5.62,22.65,22.65,0,0,1,5.8,6.1,15.05,15.05,0,0,1,2.37,8.39,14.84,14.84,0,0,1-2.72,8.65,18.23,18.23,0,0,1-8.17,6.19,34.43,34.43,0,0,1-13.28,2.28A25.17,25.17,0,0,1,132.72,478.06Z"/><path class="cls-3" d="M203.74,478.24l5.27-1.32V420.29h-10.1a20,20,0,0,1-2.9,10.27,13.17,13.17,0,0,1-2.82,3.34h-2.63V418.09H242V433.9h-2.64a12.29,12.29,0,0,1-2.9-3.34,19.75,19.75,0,0,1-2.82-10.27h-10.1v56.63l5.27,1.32v1.31h-25Z"/><path class="cls-3" d="M276.78,474.77q-6.67-6.11-6.68-17.17V420.72l-5.27-1.31v-1.32h25.05v1.32l-5.28,1.31V457.6q0,11.32,3.52,16.2t10.11,4.87a13.06,13.06,0,0,0,7.69-2.59,18.32,18.32,0,0,0,5.89-7.37,26,26,0,0,0,2.24-11.11V422l-7-2.63v-1.32h16.7v1.32l-7,2.63V457.6A27.31,27.31,0,0,1,314.05,470a18.94,18.94,0,0,1-17.58,10.89Q283.47,480.87,276.78,474.77Z"/><path class="cls-3" d="M346.13,478.24l5.27-1.32v-56.2l-5.27-1.31v-1.32h22.41q15.73,0,24.13,8.08t8.4,22.65q0,14.58-8.4,22.66t-24.13,8.07H346.13Zm22.41-.88a14.41,14.41,0,0,0,12.66-6.63q4.49-6.63,4.48-21.91t-4.48-21.91a14.42,14.42,0,0,0-12.66-6.62h-2.63v57.07Z"/><path class="cls-3" d="M426.56,479.55v-1.31l5.27-1.32v-56.2l-5.27-1.31v-1.32h25v1.32l-5.27,1.31v56.2l5.27,1.32v1.31Z"/><path class="cls-3" d="M491,477.14a24.83,24.83,0,0,1-10-10.93q-3.51-7.2-3.52-17.39t3.52-17.38a24.78,24.78,0,0,1,10-10.93,32.25,32.25,0,0,1,30.15,0,24.8,24.8,0,0,1,10,10.93q3.51,7.2,3.51,17.38t-3.51,17.39a24.85,24.85,0,0,1-10,10.93,32.33,32.33,0,0,1-30.15,0Zm21.45-.93q2.94-2.88,4.88-9.65t1.93-17.74q0-11-1.93-17.73t-4.88-9.66a8.45,8.45,0,0,0-12.74,0q-3,2.9-4.88,9.66t-1.93,17.73q0,11,1.93,17.74t4.88,9.65a8.45,8.45,0,0,0,12.74,0Z"/></g><path class="cls-3" d="M0,552.54H3.79l6.49,18.36-.57-.2,4.76-12.34,1.5,4.36-6.39,14.9Zm11.61,0H14.8l7.09,18.13-.7-.13,6.18-18h3.47l-9.45,25Z"/><path class="cls-3" d="M61.34,552.44v24H58.11V565.94H45.54v10.55H42.31v-24h3.23v10.41H58.11V552.44Z"/><path class="cls-3" d="M74.94,552.44H90.57v3.09H78.17v7.32H89.24V566H78.17v7.42H91v3.09H74.94Z"/><path class="cls-3" d="M109.67,552.44a11.34,11.34,0,0,1,3.37.48,7.94,7.94,0,0,1,2.7,1.43,6.72,6.72,0,0,1,1.79,2.35,7.51,7.51,0,0,1,.65,3.19,9.66,9.66,0,0,1-.41,2.79,6.88,6.88,0,0,1-1.37,2.48,6.63,6.63,0,0,1-2.5,1.8,9.57,9.57,0,0,1-3.84.68h-3.55v8.85h-3.23v-24Zm.33,12.08a5.75,5.75,0,0,0,2.38-.44,3.76,3.76,0,0,0,1.47-1.11,4.34,4.34,0,0,0,.77-1.45,4.87,4.87,0,0,0,0-3,4.55,4.55,0,0,0-.81-1.45,4.07,4.07,0,0,0-1.42-1.11,4.85,4.85,0,0,0-2.15-.44h-3.72v9Zm4,1.86,6.29,10.11h-3.72l-6.42-10Z"/><path class="cls-3" d="M131.85,552.44h15.63v3.09h-12.4v7.32h11.07V566H135.08v7.42H148v3.09h-16.1Z"/><path class="cls-3" d="M175.22,552.54H179l6.48,18.36-.56-.2,4.75-12.34,1.5,4.36-6.39,14.9Zm11.61,0H190l7.08,18.13-.7-.13,6.19-18h3.46l-9.45,25Z"/><path class="cls-3" d="M212.11,576.49l10.48-25h.2l10.51,25h-3.69l-7.85-20,2.29-1.5-8.74,21.49Zm6.16-9.11h8.94l1.07,2.79H217.33Z"/><path class="cls-3" d="M240.82,552.44h16v3.09h-6.46v21h-3.22v-21h-6.32Z"/><path class="cls-3" d="M268.59,552.44h15.63v3.09h-12.4v7.32h11.07V566H271.82v7.42h12.87v3.09h-16.1Z"/><path class="cls-3" d="M303.32,552.44a11.34,11.34,0,0,1,3.37.48,7.94,7.94,0,0,1,2.7,1.43,6.72,6.72,0,0,1,1.79,2.35,7.36,7.36,0,0,1,.65,3.19,9.66,9.66,0,0,1-.41,2.79,6.76,6.76,0,0,1-3.86,4.28,9.6,9.6,0,0,1-3.84.68h-3.56v8.85h-3.23v-24Zm.33,12.08a5.71,5.71,0,0,0,2.38-.44,3.88,3.88,0,0,0,1.48-1.11,4.49,4.49,0,0,0,.76-1.45,4.68,4.68,0,0,0,0-3,4.52,4.52,0,0,0-.8-1.45A4.2,4.2,0,0,0,306,556a4.85,4.85,0,0,0-2.15-.44h-3.72v9Zm4,1.86,6.29,10.11h-3.73l-6.42-10Z"/><path class="cls-3" d="M349.38,564.91a4.76,4.76,0,0,0-1.81.37,5.48,5.48,0,0,0-1.59,1,4.7,4.7,0,0,0-1.14,1.48,4.14,4.14,0,0,0-.41,1.81,3.86,3.86,0,0,0,.68,2.28,4.66,4.66,0,0,0,1.83,1.53,5.8,5.8,0,0,0,2.51.55,6.17,6.17,0,0,0,2.23-.38,5.36,5.36,0,0,0,1.66-1,4.25,4.25,0,0,0,1-1.42l2.06,1.8a7.59,7.59,0,0,1-2.77,2.78,9.64,9.64,0,0,1-8.68.21,7.45,7.45,0,0,1-2.87-2.54,6.56,6.56,0,0,1-1-3.61,6,6,0,0,1,.71-2.91,8.15,8.15,0,0,1,1.88-2.3,9.39,9.39,0,0,1,2.63-1.56,8.12,8.12,0,0,1,3-.58Zm12.21,11.58h-3.76l-11.54-15.23c-.2-.31-.43-.7-.7-1.17a9.28,9.28,0,0,1-.68-1.56,5.65,5.65,0,0,1-.28-1.77,5.41,5.41,0,0,1,.68-2.67,5.22,5.22,0,0,1,2-2,6.28,6.28,0,0,1,3.23-.78,7.68,7.68,0,0,1,3.51.78,8.89,8.89,0,0,1,2.54,1.84L355,556a10.73,10.73,0,0,0-2-1.46,4,4,0,0,0-1.94-.53,2.88,2.88,0,0,0-3.1,3,3.46,3.46,0,0,0,.25,1.23,7,7,0,0,0,.52,1.06,2.62,2.62,0,0,1,.3.57Zm-3.86-14.1h3l-3.89,10-2.33-1.5Z"/><path class="cls-3" d="M408.29,574.69a13,13,0,0,1-1.63.9,12.1,12.1,0,0,1-2.41.83,13.53,13.53,0,0,1-8.05-.66,11.39,11.39,0,0,1-6.24-6.47,13,13,0,0,1-.83-4.64,13.9,13.9,0,0,1,.87-5,11.46,11.46,0,0,1,6.27-6.56,12,12,0,0,1,4.77-.93,12.48,12.48,0,0,1,3.93.58,14.94,14.94,0,0,1,3,1.34l-1.29,3.06a13.68,13.68,0,0,0-2.43-1.29,8.34,8.34,0,0,0-6.45.1,8.53,8.53,0,0,0-2.77,2,9.37,9.37,0,0,0-2.56,6.55,10.41,10.41,0,0,0,.62,3.61,8.59,8.59,0,0,0,1.76,2.93,8,8,0,0,0,2.78,1.94,9.08,9.08,0,0,0,3.66.7,9,9,0,0,0,3.26-.56,10.16,10.16,0,0,0,2.36-1.27Z"/><path class="cls-3" d="M420.36,552.44h3.23v21H435.8v3.09H420.36Z"/><path class="cls-3" d="M445.31,576.49l10.48-25h.2l10.51,25h-3.69l-7.85-20,2.29-1.5-8.75,21.49Zm6.15-9.11h9l1.07,2.79h-11Z"/><path class="cls-3" d="M481,568.47l-8.91-16h4l7.15,13.27-1,.07,7.09-13.34h3.92l-9,16v8H481Z"/><path class="cls-3" d="M521.45,576.49V551.67h0l12.61,17.94-1.37-.3,12.61-17.64h0v24.82h-3.23V559l.23,1.63-9,12.84h-.07L524,560.62l.54-1.49v17.36Z"/><path class="cls-3" d="M558.93,552.44h15.64v3.09H562.16v7.32h11.08V566H562.16v7.42H575v3.09h-16.1Z"/><path class="cls-3" d="M587.27,552.44h15.64v3.09H590.5v7.32h11.08V566H590.5v7.42h12.87v3.09h-16.1Z"/><path class="cls-3" d="M613.82,552.44h16v3.09h-6.46v21h-3.22v-21h-6.32Z"/></svg>